<?xml version="1.0" encoding="UTF-8" standalone="no"?>
<!-- Created with Inkscape (http://www.inkscape.org/) -->

<svg
   width="167.6562"
   height="176.12271"
   viewBox="0 0 44.359037 46.599132"
   version="1.1"
   id="svg5"
   xmlns:xlink="http://www.w3.org/1999/xlink"
   xmlns="http://www.w3.org/2000/svg"
   xmlns:svg="http://www.w3.org/2000/svg">
  <defs
     id="defs2">
    <pattern
       id="pattern3224"
       xlink:href="#pattern3217"
       patternTransform="translate(18.523476,76.366917)" />
    <pattern
       id="pattern3217"
       width="7.3207528"
       patternUnits="userSpaceOnUse"
       patternTransform="translate(2.8868 82.83)"
       height="7.3207528">
      <g
         id="g3213"
         transform="matrix(.55908 0 0 .55908 -1.6139 -46.308)">
        <path
           id="path3209"
           style="fill-rule:evenodd;stroke-width:0;fill:#b3b3b3"
           d="m9.3396 86.056a3.2264 3.2264 0 1 1 -6.4528 0 3.2264 3.2264 0 1 1 6.4528 0z" />
        <path
           id="path3211"
           style="fill-rule:evenodd;stroke-width:0;fill:#b3b3b3"
           d="m9.3396 86.056a3.2264 3.2264 0 1 1 -6.4528 0 3.2264 3.2264 0 1 1 6.4528 0z"
           transform="translate(6.6415 6.6415)" />
      </g>
    </pattern>
    <filter
       style="color-interpolation-filters:sRGB"
       id="filter87882"
       x="0"
       y="0"
       width="1"
       height="1">
      <feColorMatrix
         values="1 0 0 0 0 1 0 0 0 0 1 0 0 0 0 0 0 0 0 1 "
         type="matrix"
         result="r"
         in="SourceGraphic"
         id="feColorMatrix87854" />
      <feColorMatrix
         values="0 1 0 0 0 0 1 0 0 0 0 1 0 0 0 0 0 0 0 1 "
         type="matrix"
         result="g"
         in="SourceGraphic"
         id="feColorMatrix87856" />
      <feColorMatrix
         values="0 0 1 0 0 0 0 1 0 0 0 0 1 0 0 0 0 0 0 1 "
         type="matrix"
         result="b"
         in="SourceGraphic"
         id="feColorMatrix87858" />
      <feBlend
         result="minrg"
         in="r"
         mode="darken"
         in2="g"
         id="feBlend87860" />
      <feBlend
         result="p"
         in="minrg"
         mode="darken"
         in2="b"
         id="feBlend87862" />
      <feBlend
         result="maxrg"
         in="r"
         mode="lighten"
         in2="g"
         id="feBlend87864" />
      <feBlend
         result="q"
         in="maxrg"
         mode="lighten"
         in2="b"
         id="feBlend87866" />
      <feComponentTransfer
         result="q2"
         in="q"
         id="feComponentTransfer87870">
        <feFuncR
           slope="0"
           type="linear"
           id="feFuncR87868" />
      </feComponentTransfer>
      <feBlend
         result="pq"
         in="p"
         mode="lighten"
         in2="q2"
         id="feBlend87872" />
      <feColorMatrix
         values="-1 1 0 0 0 -1 1 0 0 0 -1 1 0 0 0 0 0 0 0 1 "
         type="matrix"
         result="qminp"
         in="pq"
         id="feColorMatrix87874" />
      <feComposite
         k3="1"
         operator="arithmetic"
         result="qminpc"
         in="qminp"
         in2="qminp"
         id="feComposite87876"
         k1="0"
         k2="0"
         k4="0" />
      <feBlend
         result="result2"
         in2="SourceGraphic"
         mode="screen"
         id="feBlend87878" />
      <feComposite
         operator="in"
         in="result2"
         in2="SourceGraphic"
         result="fbSourceGraphic"
         id="feComposite87880" />
      <feColorMatrix
         result="fbSourceGraphicAlpha"
         in="fbSourceGraphic"
         values="0 0 0 -1 0 0 0 0 -1 0 0 0 0 -1 0 0 0 0 1 0"
         id="feColorMatrix87903" />
      <feColorMatrix
         id="feColorMatrix87905"
         values="1 0 0 0 0 1 0 0 0 0 1 0 0 0 0 0 0 0 0 1 "
         type="matrix"
         result="r"
         in="fbSourceGraphic" />
      <feColorMatrix
         id="feColorMatrix87907"
         values="0 1 0 0 0 0 1 0 0 0 0 1 0 0 0 0 0 0 0 1 "
         type="matrix"
         result="g"
         in="fbSourceGraphic" />
      <feColorMatrix
         id="feColorMatrix87909"
         values="0 0 1 0 0 0 0 1 0 0 0 0 1 0 0 0 0 0 0 1 "
         type="matrix"
         result="b"
         in="fbSourceGraphic" />
      <feBlend
         in2="g"
         id="feBlend87911"
         result="minrg"
         in="r"
         mode="darken" />
      <feBlend
         in2="b"
         id="feBlend87913"
         result="p"
         in="minrg"
         mode="darken" />
      <feBlend
         in2="g"
         id="feBlend87915"
         result="maxrg"
         in="r"
         mode="lighten" />
      <feBlend
         in2="b"
         id="feBlend87917"
         result="q"
         in="maxrg"
         mode="lighten" />
      <feComponentTransfer
         id="feComponentTransfer87919"
         result="q2"
         in="q">
        <feFuncR
           id="feFuncR87921"
           slope="0"
           type="linear" />
      </feComponentTransfer>
      <feBlend
         in2="q2"
         id="feBlend87923"
         result="pq"
         in="p"
         mode="lighten" />
      <feColorMatrix
         id="feColorMatrix87925"
         values="-1 1 0 0 0 -1 1 0 0 0 -1 1 0 0 0 0 0 0 0 1 "
         type="matrix"
         result="qminp"
         in="pq" />
      <feComposite
         in2="qminp"
         id="feComposite87927"
         k3="1"
         operator="arithmetic"
         result="qminpc"
         in="qminp"
         k1="0"
         k2="0"
         k4="0" />
      <feBlend
         in2="fbSourceGraphic"
         id="feBlend87929"
         result="result2"
         mode="screen" />
      <feComposite
         in2="fbSourceGraphic"
         id="feComposite87931"
         operator="in"
         in="result2"
         result="fbSourceGraphic" />
      <feColorMatrix
         result="fbSourceGraphicAlpha"
         in="fbSourceGraphic"
         values="0 0 0 -1 0 0 0 0 -1 0 0 0 0 -1 0 0 0 0 1 0"
         id="feColorMatrix88002" />
      <feColorMatrix
         id="feColorMatrix88004"
         values="1 0 0 0 0 1 0 0 0 0 1 0 0 0 0 0 0 0 0 1 "
         type="matrix"
         result="r"
         in="fbSourceGraphic" />
      <feColorMatrix
         id="feColorMatrix88006"
         values="0 1 0 0 0 0 1 0 0 0 0 1 0 0 0 0 0 0 0 1 "
         type="matrix"
         result="g"
         in="fbSourceGraphic" />
      <feColorMatrix
         id="feColorMatrix88008"
         values="0 0 1 0 0 0 0 1 0 0 0 0 1 0 0 0 0 0 0 1 "
         type="matrix"
         result="b"
         in="fbSourceGraphic" />
      <feBlend
         in2="g"
         id="feBlend88010"
         result="minrg"
         in="r"
         mode="darken" />
      <feBlend
         in2="b"
         id="feBlend88012"
         result="p"
         in="minrg"
         mode="darken" />
      <feBlend
         in2="g"
         id="feBlend88014"
         result="maxrg"
         in="r"
         mode="lighten" />
      <feBlend
         in2="b"
         id="feBlend88016"
         result="q"
         in="maxrg"
         mode="lighten" />
      <feComponentTransfer
         id="feComponentTransfer88018"
         result="q2"
         in="q">
        <feFuncR
           id="feFuncR88020"
           slope="0"
           type="linear" />
      </feComponentTransfer>
      <feBlend
         in2="q2"
         id="feBlend88022"
         result="pq"
         in="p"
         mode="lighten" />
      <feColorMatrix
         id="feColorMatrix88024"
         values="-1 1 0 0 0 -1 1 0 0 0 -1 1 0 0 0 0 0 0 0 1 "
         type="matrix"
         result="qminp"
         in="pq" />
      <feComposite
         in2="qminp"
         id="feComposite88026"
         k3="1"
         operator="arithmetic"
         result="qminpc"
         in="qminp"
         k1="0"
         k2="0"
         k4="0" />
      <feBlend
         in2="fbSourceGraphic"
         id="feBlend88028"
         result="result2"
         mode="screen" />
      <feComposite
         in2="fbSourceGraphic"
         id="feComposite88030"
         operator="in"
         in="result2"
         result="fbSourceGraphic" />
      <feColorMatrix
         result="fbSourceGraphicAlpha"
         in="fbSourceGraphic"
         values="0 0 0 -1 0 0 0 0 -1 0 0 0 0 -1 0 0 0 0 1 0"
         id="feColorMatrix88330" />
      <feColorMatrix
         id="feColorMatrix88332"
         values="0.21 0.72 0.072 10 0 0.21 0.72 0.072 10 0 0.21 0.72 0.072 10 0 0 0 0 1 0 "
         in="fbSourceGraphic"
         result="fbSourceGraphic" />
      <feColorMatrix
         result="fbSourceGraphicAlpha"
         in="fbSourceGraphic"
         values="0 0 0 -1 0 0 0 0 -1 0 0 0 0 -1 0 0 0 0 1 0"
         id="feColorMatrix88352" />
      <feColorMatrix
         id="feColorMatrix88354"
         values="0.21 0.72 0.072 10 0 0.21 0.72 0.072 10 0 0.21 0.72 0.072 10 0 0 0 0 1 0 "
         in="fbSourceGraphic"
         result="fbSourceGraphic" />
      <feColorMatrix
         result="fbSourceGraphicAlpha"
         in="fbSourceGraphic"
         values="0 0 0 -1 0 0 0 0 -1 0 0 0 0 -1 0 0 0 0 1 0"
         id="feColorMatrix88374" />
      <feColorMatrix
         id="feColorMatrix88376"
         values="0.21 0.72 0.072 10 0 0.21 0.72 0.072 10 0 0.21 0.72 0.072 10 0 0 0 0 1 0 "
         in="fbSourceGraphic" />
    </filter>
  </defs>
  <g
     id="layer1"
     transform="translate(-42.025825,-12.700316)">
    <g
       id="g97104"
       transform="translate(-33.866682)">
      <g
         id="path3254">
        <path
           style="color:#000000;fill:#fb521f;fill-rule:evenodd;stroke-width:0.529167;stroke-linecap:round;stroke-linejoin:round;-inkscape-stroke:none"
           d="m 103.65739,52.096695 c 0.0173,4.357642 -4.150903,6.208379 -6.707525,6.142932 -2.643443,-0.06797 -6.636585,-3.089687 -6.444775,-6.744276 l 0.212508,-32.067825 c 0.04201,-4.279972 4.443523,-5.679486 6.468023,-5.668179 2.644791,0.01574 6.486649,1.841424 6.684279,5.762198 z"
           id="path141599" />
        <path
           style="color:#000000;fill:#ffffff;fill-rule:evenodd;stroke-linecap:round;stroke-linejoin:round;-inkscape-stroke:none"
           d="m 97.1875,13.494141 c -1.074285,-0.006 -2.710997,0.349421 -4.123047,1.267578 -1.412049,0.918156 -2.589436,2.433676 -2.611328,4.664062 l -0.212891,32.056641 c -0.101141,1.927072 0.898349,3.664669 2.244141,4.923828 1.345792,1.259159 3.039971,2.06117 4.458984,2.097656 1.345768,0.03445 3.069381,-0.426254 4.482421,-1.464844 1.41305,-1.038589 2.50508,-2.680033 2.4961,-4.943359 l 0.21289,-32.572266 a 0.26460996,0.26460996 0 0 0 0,-0.01563 c -0.10305,-2.044413 -1.16868,-3.561834 -2.53516,-4.546874 -1.36648,-0.985041 -3.029601,-1.45857 -4.41211,-1.466797 z m -0.0039,0.529297 c 1.262279,0.0075 2.84237,0.455258 4.10743,1.367187 1.26505,0.911929 2.21987,2.268175 2.31445,4.144531 l -0.21289,32.560547 a 0.26460996,0.26460996 0 0 0 0,0.002 c 0.008,2.094312 -0.97537,3.555799 -2.28125,4.515625 -1.30589,0.959826 -2.943451,1.392325 -4.154303,1.361328 -1.224427,-0.03148 -2.847644,-0.772741 -4.111328,-1.955078 -1.263684,-1.182336 -2.16684,-2.782252 -2.076172,-4.509765 a 0.26460996,0.26460996 0 0 0 0,-0.01172 l 0.212891,-32.06836 c 0.02012,-2.049581 1.063809,-3.375844 2.36914,-4.224609 1.305332,-0.848765 2.881819,-1.186948 3.832032,-1.18164 z"
           id="path141601" />
      </g>
      <path
         style="color:#000000;fill:#ffffff;fill-rule:evenodd;-inkscape-stroke:none"
         d="m 89.712891,23.982422 c -1.018903,-0.0073 -1.849276,0.816035 -1.859375,1.833984 L 87.751953,35.90625 c -0.01017,1.01982 0.815093,1.854008 1.833984,1.861328 l 16.691403,0.119141 c 1.01891,0.0073 1.84893,-0.814193 1.85938,-1.832032 l 0.10156,-10.091796 c 0.0102,-1.01982 -0.81705,-1.854008 -1.83594,-1.861329 z m -0.0039,0.529297 16.689459,0.11914 c 0.73491,0.0053 1.31786,0.59223 1.31054,1.326172 l -0.10156,10.091797 c -0.008,0.735927 -0.59126,1.315801 -1.32617,1.310547 L 89.589844,37.238281 c -0.734915,-0.0053 -1.315909,-0.592227 -1.308594,-1.326172 l 0.101562,-10.091797 c 0.0073,-0.735815 0.591269,-1.313847 1.326172,-1.308593 z"
         id="rect3029-8" />
      <g
         id="g89077">
        <g
           id="g89055">
          <g
             id="g89034">
            <g
               id="g89014">
              <g
                 id="g88995">
                <g
                   id="g88977">
                  <g
                     id="g88960">
                    <g
                       id="g88944">
                      <g
                         id="g88929">
                        <g
                           id="g71429">
                          <g
                             id="g71415">
                            <g
                               id="layer1-4"
                               transform="matrix(0.2254183,-0.2222502,0.22228204,0.2254506,66.782732,36.986879)"
                               style="stroke-width:0.835754">
                              <g
                                 id="g3250"
                                 transform="rotate(-90,66.69955,65.03045)" />
                              <g
                                 id="g3244">
                                <g
                                   id="rect3026">
                                <path
                                   style="color:#000000;fill:#fb521f;fill-rule:evenodd;stroke-width:1.67151;stroke-linecap:round;stroke-linejoin:round;-inkscape-stroke:none"
                                   d="M 32.422143,40.512126 C 22.582752,30.886281 27.663314,17.405291 33.479975,11.799348 39.494837,6.003689 54.005163,2.5977678 61.799601,11.134668 l 67.758519,67.758507 c 9.53321,9.586954 2.92035,22.592065 -1.59453,27.121085 -5.90038,5.91453 -18.52619,10.50761 -27.78294,2.25638 z"
                                   id="path141609" />
                                <path
                                   style="color:#000000;fill:#ffffff;fill-rule:evenodd;stroke-linecap:round;stroke-linejoin:round;-inkscape-stroke:none"
                                   d="M 51.078125,5.234375 C 49.684113,5.1127275 48.277544,5.1281371 46.892578,5.2597656 41.352716,5.7862796 36.090724,8.1231992 32.900391,11.197266 29.838585,14.148153 27.05144,19.0453 26.253906,24.527344 c -0.797533,5.482044 0.473481,11.582442 5.583985,16.582031 l 67.751953,67.751955 a 0.83583857,0.83583857 0 0 0 0.03516,0.0332 c 4.826756,4.30245 10.599896,5.27395 15.845696,4.38477 5.24581,-0.88919 9.99969,-3.58214 13.08399,-6.67383 a 0.83583857,0.83583857 0 0 0 0,-0.002 c 2.39578,-2.40329 5.22676,-6.873231 6.29297,-12.085942 1.0662,-5.212711 0.27069,-11.21692 -4.69727,-16.212891 a 0.83583857,0.83583857 0 0 0 -0.002,-0.002 L 62.416016,10.570313 C 59.334526,7.1952939 55.260162,5.5993175 51.078125,5.234375 Z m -0.15625,1.6601562 c 3.837149,0.3274467 7.495433,1.7750842 10.259766,4.8027348 a 0.83583857,0.83583857 0 0 0 0.02734,0.0293 L 128.9668,79.484375 c 4.56335,4.590487 5.22963,9.881127 4.24414,14.699219 -0.98564,4.818828 -3.72076,9.114506 -5.83985,11.240236 -2.81607,2.82283 -7.32331,5.38385 -12.17968,6.20703 -4.85434,0.82283 -10.02048,-0.0359 -14.44922,-3.98047 -0.002,-0.002 -0.004,-0.002 -0.006,-0.004 L 33.013672,39.921875 a 0.83583857,0.83583857 0 0 0 -0.0078,-0.0078 c -4.72889,-4.626258 -5.836685,-10.078156 -5.099622,-15.144544 0.737063,-5.066387 3.399448,-9.71409 6.154297,-12.36914 2.824522,-2.7215871 7.822619,-4.9854276 12.990234,-5.4765629 1.291904,-0.1227838 2.592044,-0.1384457 3.871094,-0.029297 z"
                                   id="path141611" />
                                </g>
                                <path
                                   id="rect3029"
                                   style="fill:#ff9955;fill-rule:evenodd"
                                   d="M 48.982048,45.85515 72.500547,22.807502 c 1.978392,-1.938784 5.112382,-1.958686 7.071068,0 l 37.278675,37.278669 c 1.95868,1.958686 1.9784,5.132286 0,7.071068 L 93.331785,90.204881 c -1.978396,1.938786 -5.112382,1.95869 -7.071068,0 L 48.982048,52.926218 c -1.958685,-1.958686 -1.978392,-5.132284 0,-7.071068 z" />
                                <path
                                   id="rect3192"
                                   style="fill:url(#pattern3224);fill-rule:evenodd;filter:url(#filter87882)"
                                   d="m 76.184776,23.077917 c -1.278,0 -2.312,0.13 -3.292,1.109 l -22.412,20.972 c -1.959,1.959 -1.959,5.104 0,7.062 l 37.281,37.282 c 1.959,1.958 4.424,1.449 6.383,-0.51 l 21.302994,-21.303 c 1.96,-1.959 2.55,-4.623 0.59,-6.582 l -36.201994,-36.081 c -0.979,-0.979 -2.373,-1.949 -3.651,-1.949 z" />
                              </g>
                            </g>
                          </g>
                        </g>
                      </g>
                    </g>
                  </g>
                </g>
              </g>
            </g>
          </g>
        </g>
      </g>
    </g>
  </g>
</svg>
