<?xml version="1.0" encoding="UTF-8" standalone="no"?>
<!-- Created with Inkscape (http://www.inkscape.org/) -->

<svg
   width="400.00009"
   height="100.34793"
   viewBox="0 0 105.83336 26.550389"
   version="1.1"
   id="svg5"
   xmlns:xlink="http://www.w3.org/1999/xlink"
   xmlns="http://www.w3.org/2000/svg"
   xmlns:svg="http://www.w3.org/2000/svg">
  <defs
     id="defs2">
    <pattern
       id="pattern3224"
       xlink:href="#pattern3217"
       patternTransform="translate(18.523476,76.366917)" />
    <pattern
       id="pattern3217"
       width="7.3207528"
       patternUnits="userSpaceOnUse"
       patternTransform="translate(2.8868 82.83)"
       height="7.3207528">
      <g
         id="g3213"
         transform="matrix(.55908 0 0 .55908 -1.6139 -46.308)">
        <path
           id="path3209"
           style="fill-rule:evenodd;stroke-width:0;fill:#b3b3b3"
           d="m9.3396 86.056a3.2264 3.2264 0 1 1 -6.4528 0 3.2264 3.2264 0 1 1 6.4528 0z" />
        <path
           id="path3211"
           style="fill-rule:evenodd;stroke-width:0;fill:#b3b3b3"
           d="m9.3396 86.056a3.2264 3.2264 0 1 1 -6.4528 0 3.2264 3.2264 0 1 1 6.4528 0z"
           transform="translate(6.6415 6.6415)" />
      </g>
    </pattern>
    <filter
       style="color-interpolation-filters:sRGB"
       id="filter87882"
       x="0"
       y="0"
       width="1"
       height="1">
      <feColorMatrix
         values="1 0 0 0 0 1 0 0 0 0 1 0 0 0 0 0 0 0 0 1 "
         type="matrix"
         result="r"
         in="SourceGraphic"
         id="feColorMatrix87854" />
      <feColorMatrix
         values="0 1 0 0 0 0 1 0 0 0 0 1 0 0 0 0 0 0 0 1 "
         type="matrix"
         result="g"
         in="SourceGraphic"
         id="feColorMatrix87856" />
      <feColorMatrix
         values="0 0 1 0 0 0 0 1 0 0 0 0 1 0 0 0 0 0 0 1 "
         type="matrix"
         result="b"
         in="SourceGraphic"
         id="feColorMatrix87858" />
      <feBlend
         result="minrg"
         in="r"
         mode="darken"
         in2="g"
         id="feBlend87860" />
      <feBlend
         result="p"
         in="minrg"
         mode="darken"
         in2="b"
         id="feBlend87862" />
      <feBlend
         result="maxrg"
         in="r"
         mode="lighten"
         in2="g"
         id="feBlend87864" />
      <feBlend
         result="q"
         in="maxrg"
         mode="lighten"
         in2="b"
         id="feBlend87866" />
      <feComponentTransfer
         result="q2"
         in="q"
         id="feComponentTransfer87870">
        <feFuncR
           slope="0"
           type="linear"
           id="feFuncR87868" />
      </feComponentTransfer>
      <feBlend
         result="pq"
         in="p"
         mode="lighten"
         in2="q2"
         id="feBlend87872" />
      <feColorMatrix
         values="-1 1 0 0 0 -1 1 0 0 0 -1 1 0 0 0 0 0 0 0 1 "
         type="matrix"
         result="qminp"
         in="pq"
         id="feColorMatrix87874" />
      <feComposite
         k3="1"
         operator="arithmetic"
         result="qminpc"
         in="qminp"
         in2="qminp"
         id="feComposite87876"
         k1="0"
         k2="0"
         k4="0" />
      <feBlend
         result="result2"
         in2="SourceGraphic"
         mode="screen"
         id="feBlend87878" />
      <feComposite
         operator="in"
         in="result2"
         in2="SourceGraphic"
         result="fbSourceGraphic"
         id="feComposite87880" />
      <feColorMatrix
         result="fbSourceGraphicAlpha"
         in="fbSourceGraphic"
         values="0 0 0 -1 0 0 0 0 -1 0 0 0 0 -1 0 0 0 0 1 0"
         id="feColorMatrix87903" />
      <feColorMatrix
         id="feColorMatrix87905"
         values="1 0 0 0 0 1 0 0 0 0 1 0 0 0 0 0 0 0 0 1 "
         type="matrix"
         result="r"
         in="fbSourceGraphic" />
      <feColorMatrix
         id="feColorMatrix87907"
         values="0 1 0 0 0 0 1 0 0 0 0 1 0 0 0 0 0 0 0 1 "
         type="matrix"
         result="g"
         in="fbSourceGraphic" />
      <feColorMatrix
         id="feColorMatrix87909"
         values="0 0 1 0 0 0 0 1 0 0 0 0 1 0 0 0 0 0 0 1 "
         type="matrix"
         result="b"
         in="fbSourceGraphic" />
      <feBlend
         in2="g"
         id="feBlend87911"
         result="minrg"
         in="r"
         mode="darken" />
      <feBlend
         in2="b"
         id="feBlend87913"
         result="p"
         in="minrg"
         mode="darken" />
      <feBlend
         in2="g"
         id="feBlend87915"
         result="maxrg"
         in="r"
         mode="lighten" />
      <feBlend
         in2="b"
         id="feBlend87917"
         result="q"
         in="maxrg"
         mode="lighten" />
      <feComponentTransfer
         id="feComponentTransfer87919"
         result="q2"
         in="q">
        <feFuncR
           id="feFuncR87921"
           slope="0"
           type="linear" />
      </feComponentTransfer>
      <feBlend
         in2="q2"
         id="feBlend87923"
         result="pq"
         in="p"
         mode="lighten" />
      <feColorMatrix
         id="feColorMatrix87925"
         values="-1 1 0 0 0 -1 1 0 0 0 -1 1 0 0 0 0 0 0 0 1 "
         type="matrix"
         result="qminp"
         in="pq" />
      <feComposite
         in2="qminp"
         id="feComposite87927"
         k3="1"
         operator="arithmetic"
         result="qminpc"
         in="qminp"
         k1="0"
         k2="0"
         k4="0" />
      <feBlend
         in2="fbSourceGraphic"
         id="feBlend87929"
         result="result2"
         mode="screen" />
      <feComposite
         in2="fbSourceGraphic"
         id="feComposite87931"
         operator="in"
         in="result2"
         result="fbSourceGraphic" />
      <feColorMatrix
         result="fbSourceGraphicAlpha"
         in="fbSourceGraphic"
         values="0 0 0 -1 0 0 0 0 -1 0 0 0 0 -1 0 0 0 0 1 0"
         id="feColorMatrix88002" />
      <feColorMatrix
         id="feColorMatrix88004"
         values="1 0 0 0 0 1 0 0 0 0 1 0 0 0 0 0 0 0 0 1 "
         type="matrix"
         result="r"
         in="fbSourceGraphic" />
      <feColorMatrix
         id="feColorMatrix88006"
         values="0 1 0 0 0 0 1 0 0 0 0 1 0 0 0 0 0 0 0 1 "
         type="matrix"
         result="g"
         in="fbSourceGraphic" />
      <feColorMatrix
         id="feColorMatrix88008"
         values="0 0 1 0 0 0 0 1 0 0 0 0 1 0 0 0 0 0 0 1 "
         type="matrix"
         result="b"
         in="fbSourceGraphic" />
      <feBlend
         in2="g"
         id="feBlend88010"
         result="minrg"
         in="r"
         mode="darken" />
      <feBlend
         in2="b"
         id="feBlend88012"
         result="p"
         in="minrg"
         mode="darken" />
      <feBlend
         in2="g"
         id="feBlend88014"
         result="maxrg"
         in="r"
         mode="lighten" />
      <feBlend
         in2="b"
         id="feBlend88016"
         result="q"
         in="maxrg"
         mode="lighten" />
      <feComponentTransfer
         id="feComponentTransfer88018"
         result="q2"
         in="q">
        <feFuncR
           id="feFuncR88020"
           slope="0"
           type="linear" />
      </feComponentTransfer>
      <feBlend
         in2="q2"
         id="feBlend88022"
         result="pq"
         in="p"
         mode="lighten" />
      <feColorMatrix
         id="feColorMatrix88024"
         values="-1 1 0 0 0 -1 1 0 0 0 -1 1 0 0 0 0 0 0 0 1 "
         type="matrix"
         result="qminp"
         in="pq" />
      <feComposite
         in2="qminp"
         id="feComposite88026"
         k3="1"
         operator="arithmetic"
         result="qminpc"
         in="qminp"
         k1="0"
         k2="0"
         k4="0" />
      <feBlend
         in2="fbSourceGraphic"
         id="feBlend88028"
         result="result2"
         mode="screen" />
      <feComposite
         in2="fbSourceGraphic"
         id="feComposite88030"
         operator="in"
         in="result2"
         result="fbSourceGraphic" />
      <feColorMatrix
         result="fbSourceGraphicAlpha"
         in="fbSourceGraphic"
         values="0 0 0 -1 0 0 0 0 -1 0 0 0 0 -1 0 0 0 0 1 0"
         id="feColorMatrix88330" />
      <feColorMatrix
         id="feColorMatrix88332"
         values="0.21 0.72 0.072 10 0 0.21 0.72 0.072 10 0 0.21 0.72 0.072 10 0 0 0 0 1 0 "
         in="fbSourceGraphic"
         result="fbSourceGraphic" />
      <feColorMatrix
         result="fbSourceGraphicAlpha"
         in="fbSourceGraphic"
         values="0 0 0 -1 0 0 0 0 -1 0 0 0 0 -1 0 0 0 0 1 0"
         id="feColorMatrix88352" />
      <feColorMatrix
         id="feColorMatrix88354"
         values="0.21 0.72 0.072 10 0 0.21 0.72 0.072 10 0 0.21 0.72 0.072 10 0 0 0 0 1 0 "
         in="fbSourceGraphic"
         result="fbSourceGraphic" />
      <feColorMatrix
         result="fbSourceGraphicAlpha"
         in="fbSourceGraphic"
         values="0 0 0 -1 0 0 0 0 -1 0 0 0 0 -1 0 0 0 0 1 0"
         id="feColorMatrix88374" />
      <feColorMatrix
         id="feColorMatrix88376"
         values="0.21 0.72 0.072 10 0 0.21 0.72 0.072 10 0 0.21 0.72 0.072 10 0 0 0 0 1 0 "
         in="fbSourceGraphic" />
    </filter>
    <linearGradient
       id="linearGradient5186">
      <stop
         style="stop-color:#ef2008;stop-opacity:1"
         offset="0"
         id="stop5182" />
      <stop
         style="stop-color:#ff6428;stop-opacity:1"
         offset="1"
         id="stop5184" />
    </linearGradient>
    <linearGradient
       xlink:href="#linearGradient5186"
       id="linearGradient4888"
       x1="51.713676"
       y1="99.769508"
       x2="210.40228"
       y2="99.769508"
       gradientUnits="userSpaceOnUse"
       gradientTransform="matrix(0.0378579,0,0,0.0378579,45.86825,18.796123)" />
    <linearGradient
       xlink:href="#linearGradient886"
       id="linearGradient888"
       x1="115.86406"
       y1="186.00212"
       x2="301.39139"
       y2="186.00212"
       gradientUnits="userSpaceOnUse"
       gradientTransform="matrix(0.0378579,0,0,0.0378579,42.890723,17.610927)" />
    <linearGradient
       id="linearGradient886">
      <stop
         style="stop-color:#3771c8;stop-opacity:1"
         offset="0"
         id="stop882" />
      <stop
         style="stop-color:#2ca089;stop-opacity:1"
         offset="1"
         id="stop884" />
    </linearGradient>
    <linearGradient
       xlink:href="#linearGradient5186"
       id="linearGradient62102"
       gradientUnits="userSpaceOnUse"
       gradientTransform="matrix(0.07197955,0,0,0.07197955,39.480163,10.703684)"
       x1="225.77231"
       y1="173.93456"
       x2="1111.1683"
       y2="173.93456" />
    <linearGradient
       xlink:href="#linearGradient5186"
       id="linearGradient62104"
       gradientUnits="userSpaceOnUse"
       gradientTransform="matrix(0.07197955,0,0,0.07197955,39.480163,10.703684)"
       x1="225.77231"
       y1="173.93456"
       x2="1111.1683"
       y2="173.93456" />
    <linearGradient
       xlink:href="#linearGradient5186"
       id="linearGradient62106"
       gradientUnits="userSpaceOnUse"
       gradientTransform="matrix(0.07197955,0,0,0.07197955,39.480163,10.703684)"
       x1="225.77231"
       y1="173.93456"
       x2="1111.1683"
       y2="173.93456" />
    <linearGradient
       xlink:href="#linearGradient5186"
       id="linearGradient62108"
       gradientUnits="userSpaceOnUse"
       gradientTransform="matrix(0.07197955,0,0,0.07197955,39.480163,10.703684)"
       x1="225.77231"
       y1="173.93456"
       x2="1111.1683"
       y2="173.93456" />
    <linearGradient
       xlink:href="#linearGradient5186"
       id="linearGradient62110"
       gradientUnits="userSpaceOnUse"
       gradientTransform="matrix(0.07197955,0,0,0.07197955,39.480163,10.703684)"
       x1="225.77231"
       y1="173.93456"
       x2="1111.1683"
       y2="173.93456" />
    <linearGradient
       xlink:href="#linearGradient5186"
       id="linearGradient62112"
       gradientUnits="userSpaceOnUse"
       gradientTransform="matrix(0.07197955,0,0,0.07197955,39.480163,10.703684)"
       x1="225.77231"
       y1="173.93456"
       x2="1111.1683"
       y2="173.93456" />
    <linearGradient
       xlink:href="#linearGradient5186"
       id="linearGradient62114"
       gradientUnits="userSpaceOnUse"
       gradientTransform="matrix(0.07197955,0,0,0.07197955,39.480163,10.703684)"
       x1="225.77231"
       y1="173.93456"
       x2="1111.1683"
       y2="173.93456" />
    <linearGradient
       xlink:href="#linearGradient5186"
       id="linearGradient62116"
       gradientUnits="userSpaceOnUse"
       gradientTransform="matrix(0.07197955,0,0,0.07197955,39.480163,10.703684)"
       x1="225.77231"
       y1="173.93456"
       x2="1111.1683"
       y2="173.93456" />
    <linearGradient
       xlink:href="#linearGradient5186"
       id="linearGradient62118"
       gradientUnits="userSpaceOnUse"
       gradientTransform="matrix(0.07197955,0,0,0.07197955,39.480163,10.703684)"
       x1="225.77231"
       y1="173.93456"
       x2="1111.1683"
       y2="173.93456" />
    <linearGradient
       xlink:href="#linearGradient5186"
       id="linearGradient62120"
       gradientUnits="userSpaceOnUse"
       gradientTransform="matrix(0.07197955,0,0,0.07197955,39.480163,10.703684)"
       x1="225.77231"
       y1="173.93456"
       x2="1111.1683"
       y2="173.93456" />
    <linearGradient
       xlink:href="#linearGradient5186"
       id="linearGradient62122"
       gradientUnits="userSpaceOnUse"
       gradientTransform="matrix(0.07197955,0,0,0.07197955,39.480163,10.703684)"
       x1="225.77231"
       y1="173.93456"
       x2="1111.1683"
       y2="173.93456" />
  </defs>
  <path
     d="m 80.855574,10.894222 c 0,0.570846 -0.06811,1.092053 -0.204339,1.56362 -0.126495,0.459159 -0.360024,0.856268 -0.700587,1.19133 -0.330834,0.322652 -0.793028,0.57705 -1.386582,0.763195 -0.583825,0.186145 -1.328198,0.279218 -2.233121,0.279218 -0.904926,0 -1.65417,-0.09307 -2.247724,-0.279218 -0.593554,-0.186145 -1.060609,-0.440543 -1.401172,-0.763195 -0.330834,-0.335062 -0.564367,-0.732171 -0.700591,-1.19133 -0.126496,-0.471567 -0.189742,-0.992774 -0.189742,-1.56362 V 4.5466701 c 0,-0.5708454 0.06325,-1.0858473 0.189742,-1.5450053 0.136224,-0.4715679 0.369757,-0.8748826 0.700591,-1.2099441 0.340563,-0.3350614 0.807618,-0.5956647 1.401172,-0.7818099 0.593554,-0.18614521 1.342798,-0.27921781 2.247724,-0.27921781 0.904923,0 1.649296,0.093073 2.233121,0.27921781 0.593554,0.1861452 1.055748,0.4467485 1.386582,0.7818099 0.340563,0.3350615 0.574092,0.7383762 0.700587,1.2099441 0.136225,0.459158 0.204339,0.9741599 0.204339,1.5450053 z m -6.534485,-0.49629 c 0.02223,0.247195 0.843423,1.093253 0.989376,1.266989 0.145957,0.161326 1.671389,-0.09584 2.196832,-0.09584 0.525441,0 0.861136,-0.08066 1.007093,-0.241988 0.145954,-0.173736 1.179621,-1.868056 1.123859,-2.109904 L 78.384893,3.7812336 C 78.331919,3.5514776 77.50463,3.4994296 77.358673,3.3381037 77.212719,3.1643677 76.87702,3.0775 76.35158,3.0775 c -0.52544,0 -0.861142,0.086868 -1.007099,0.2606037 -0.145953,0.1613259 -1.658171,0.00157 -1.637052,0.2364205 z"
     style="font-size:50.419px;line-height:1.25;font-family:Bungee;-inkscape-font-specification:Bungee;fill:#f9f9f9;fill-opacity:1;stroke-width:0.264583"
     id="path91742" />
  <path
     d="m 65.312405,13.949101 -1.615541,0.03058 c -0.184844,0.0035 -0.321105,-0.04964 -0.408677,-0.148916 -0.07784,-0.111687 -0.116763,-0.285422 -0.116763,-0.521206 l 0.385835,-9.9978624 h -2.145551 c -0.18488,0 -0.321105,-0.049639 -0.408677,-0.1489164 -0.07784,-0.1116873 -0.05388,-0.2939638 -0.116763,-0.5212068 L 60.500433,1.2473491 c -0.06289,-0.2272429 0.03892,-0.40331471 0.116763,-0.50259211 0.08757,-0.1116872 0.2238,-0.1675307 0.408677,-0.1675307 h 7.70647 c 0.184877,0 0.316237,0.055844 0.39408,0.1675307 0.08757,0.099277 0.190971,0.27446831 0.13136,0.50259211 l -0.360492,1.3795377 c -0.05961,0.2281239 -0.04379,0.4095196 -0.13136,0.5212068 C 68.688084,3.2473713 68.556724,3.29701 68.37185,3.29701 h -2.145554 l -0.388451,9.981968 c -0.0092,0.235606 -0.04378,0.40952 -0.13136,0.521207 -0.07784,0.09928 -0.209232,0.145417 -0.39408,0.148916 z"
     style="font-size:50.419px;line-height:1.25;font-family:Bungee;-inkscape-font-specification:Bungee;fill:#ffffff;fill-opacity:1;stroke-width:0.264583"
     id="path91745" />
  <path
     d="m 50.356301,14.026234 -1.650515,0.328824 c -0.181313,0.03612 -0.321101,-0.04964 -0.408674,-0.148916 -0.07784,-0.111687 -0.116766,-0.285423 -0.116766,-0.521207 V 1.6227244 c 0,-0.235784 0.03892,-0.4033147 0.116766,-0.5025921 0.08757,-0.1116872 0.225324,-0.19124111 0.408674,-0.16753071 l 1.911529,0.24719601 c 0.183353,0.023711 0.31624,0.055844 0.394083,0.1675306 0.08757,0.099277 0.13136,0.2668082 0.13136,0.5025922 v 4.2813401 l 1.762002,0.2294876 1.232111,-4.7162819 c 0.06811,-0.2233742 0.160551,-0.3784953 0.277318,-0.465363 0.116763,-0.099277 0.267888,-0.1382683 0.452461,-0.1489162 l 1.69156,-0.097585 c 0.165144,-0.00953 0.277317,0.055844 0.335702,0.16753071 0.05838,0.099277 0.05352,0.2481936 -0.01458,0.4467485 l -1.488758,4.3371839 c 0.544902,0.037229 0.977905,0.2854227 1.299007,0.7445809 0.330834,0.4467486 0.496252,1.0424133 0.496252,1.7869942 v 5.2492948 c 0,0.235784 -0.04379,0.40952 -0.13136,0.521207 -0.07784,0.09928 -0.220913,0.213666 -0.394083,0.148916 l -1.338701,-0.500553 c -0.173167,-0.06475 -0.321102,-0.04964 -0.408677,-0.148916 -0.07784,-0.111688 -0.116767,-0.285423 -0.116767,-0.521207 V 9.55455 c 0,-0.198555 -0.03892,-0.353676 -0.116763,-0.4653629 C 54.601642,8.9774998 54.482506,8.8945927 54.32919,8.9216562 l -3.447435,0.1717289 v 4.2627259 c 0,0.235784 -0.04378,0.409519 -0.13136,0.521207 -0.07784,0.09928 -0.209203,0.148916 -0.394083,0.148916 z"
     style="font-size:50.419px;line-height:1.25;font-family:Bungee;-inkscape-font-specification:Bungee;fill:#ffffff;fill-opacity:1;stroke-width:0.264583"
     id="path91748" />
  <path
     d="m 44.29779,14.638314 h -3.561324 c -1.216299,0 -2.121226,-0.328587 -2.71478,-0.985761 -0.583821,-0.657175 -0.875732,-1.669223 -0.875732,-3.036146 V 4.484971 c 0,-1.3669227 0.291911,-2.3789711 0.875732,-3.0361454 0.593554,-0.67031781 1.498481,-1.00547671 2.71478,-1.00547671 h 3.561324 c 0.184877,0 0.316237,0.059146 0.39408,0.1774371 0.08757,0.1051478 0.194325,0.2906527 0.13136,0.53231121 l -0.377757,1.4498573 c -0.06296,0.2416584 -0.04379,0.433735 -0.13136,0.5520267 -0.07784,0.1051478 -0.209203,0.157722 -0.39408,0.157722 h -2.933715 c -0.30164,0 -0.52544,0.085433 -0.671394,0.256298 -0.145957,0.1577216 -0.212766,0.400934 -0.218935,0.7294635 l -0.116002,6.1773933 c -0.0062,0.328529 0.07298,0.571741 0.218936,0.729463 0.145954,0.144578 0.36975,0.216867 0.671394,0.216867 h 2.933714 c 0.184874,0 0.316234,0.05915 0.394081,0.177437 0.08757,0.105148 0.06518,0.291513 0.13136,0.532311 l 0.493758,1.79663 c 0.06618,0.240798 -0.04379,0.433735 -0.13136,0.552026 -0.07784,0.105148 -0.209203,0.157722 -0.39408,0.157722 z"
     style="font-size:50.419px;line-height:1.25;font-family:Bungee;-inkscape-font-specification:Bungee;fill:#ffffff;fill-opacity:1;stroke-width:0.264583"
     id="path91751" />
  <path
     d="m 27.417289,14.634893 c -0.184877,0 -0.321103,-0.05207 -0.408678,-0.156197 -0.07784,-0.117147 -0.08674,-0.301206 -0.116764,-0.546687 L 26.66949,12.114236 c -0.03003,-0.245481 0.03892,-0.423031 0.116764,-0.527162 0.08758,-0.117147 0.223802,-0.175721 0.408679,-0.175721 h 1.444962 l 0.227322,-7.8996966 h -1.444963 c -0.184877,0 -0.321103,-0.052065 -0.408679,-0.1561965 -0.07784,-0.1171473 -0.11596,-0.2993778 -0.116763,-0.5466871 l -0.005,-1.5286633 c -8.18e-4,-0.2473094 0.03892,-0.42303161 0.116764,-0.52716251 0.08757,-0.1171471 0.223801,-0.1757207 0.408678,-0.1757207 h 6.21772 c 0.184877,0 0.316237,0.058574 0.39408,0.1757207 0.08757,0.1041309 0.20188,0.29011921 0.13136,0.52716251 l -0.494016,1.6605679 c -0.07052,0.2370434 -0.04378,0.42954 -0.13136,0.5466872 -0.07784,0.1041311 -0.2092,0.1561965 -0.39408,0.1561965 l -1.410805,-0.8338055 0.266695,8.6015974 h 1.415771 c 0.184877,0 0.316237,0.05857 0.39408,0.175721 0.08757,0.104131 0.101333,0.281681 0.13136,0.527162 l 0.222355,1.817773 c 0.03001,0.245481 -0.04379,0.42954 -0.13136,0.546687 -0.07784,0.104131 -0.209203,0.156197 -0.39408,0.156197 z"
     style="font-size:50.419px;line-height:1.25;font-family:Bungee;-inkscape-font-specification:Bungee;fill:#ffffff;fill-opacity:1;stroke-width:0.264583"
     id="path91754" />
  <path
     d="M 5.946687,14.660983 H 0.88909559 c -0.2027305,0 -0.3521108,-0.05276 -0.448141,-0.158287 -0.08536,-0.118715 -0.1280403,-0.303383 -0.1280403,-0.554004 v -2.314948 c 0,-0.250621 0.04268,-0.139039 0.1280403,-0.244564 0.09603,-0.118715 0.2459293,-0.192567 0.448141,-0.178073 L 5.3924961,11.5339 c 0.1383552,0.0099 0.2400756,-0.05276 0.3040955,-0.158287 0.07469,-0.118715 0.5495646,-1.358743 0.5495646,-1.517029 0,-0.224241 -0.037345,-0.389123 -0.1120355,-0.494648 C 6.0701008,9.258412 5.9687355,9.199054 5.8300253,9.1858634 L 3.1420739,8.7407621 C 2.3951715,8.6088565 1.4439368,8.8241501 0.98512579,8.3492889 0.53698479,7.8744281 0.31291429,7.0829932 0.31291429,5.9749839 V 3.8974667 c 0,-1.1211995 0.2934256,-1.9785873 0.88027691,-2.5721635 C 1.7800425,0.71853639 2.5909647,0.41515299 3.625957,0.41515299 h 4.4814096 c 0.2027304,0 0.3467756,0.059358 0.4321356,0.1780728 0.09603,0.1055247 0.1440455,0.2835976 0.1440455,0.53421871 v 2.3545193 c 0,0.2506211 -0.2025973,-0.02207 -0.2986277,0.096644 -0.08536,0.1055248 -0.2655587,0.077734 -0.4682868,0.076825 L 4.1547157,3.6385837 C 4.0160065,3.6379626 3.5501225,3.6252617 3.4754326,3.743978 3.4007423,3.8495028 3.0310575,4.6748443 3.0310575,4.8463218 c 0,0.1714774 0.8770979,0.8258756 0.9517881,0.944591 0.07469,0.1187154 0.1813904,0.1846681 0.3201009,0.1978587 L 6.572717,6.3861564 C 7.3196187,6.5180623 7.9224749,6.8214458 8.3812856,7.2963067 8.840097,7.7711679 9.259729,7.9931431 9.259729,9.1011524 v 2.0775166 c 0,1.1212 -0.2987606,1.985183 -0.8962821,2.59195 -0.5868512,0.593576 -1.3924378,0.890364 -2.4167599,0.890364 z"
     style="font-size:50.419px;line-height:1.25;font-family:Bungee;-inkscape-font-specification:Bungee;fill:#ffffff;fill-opacity:1;stroke-width:0.264583"
     id="path91757" />
  <path
     d="M 6.1067183,14.734732 H 0.6245507 q -0.329624,0 -0.48576167,-0.160378 Q 0,14.393929 0,14.013031 V 11.667502 Q 0,11.286604 0.13878903,11.126226 0.2949267,10.945801 0.6245507,10.945801 h 4.6667818 q 0.2255325,0 0.329624,-0.160378 0.1214406,-0.180425 0.1214406,-0.420993 0,-0.340803 -0.1214406,-0.501181 Q 5.516865,9.702871 5.2913325,9.682824 L 2.6890383,9.261832 Q 1.4746336,9.0613592 0.7286425,8.3396582 0,7.6179568 0,5.9339874 V 3.8290258 Q 0,2.125009 0.9541747,1.2228825 1.9083493,0.3007088 3.5911671,0.3007088 h 4.8576166 q 0.3296237,0 0.468413,0.1804253 0.1561377,0.160378 0.1561377,0.5412759 v 2.3856233 q 0,0.380898 -0.1561377,0.5613232 -0.1387893,0.1603782 -0.468413,0.1603782 H 4.4065529 q -0.2255325,0 -0.3469728,0.1804253 -0.1214402,0.1603778 -0.1214402,0.4209922 0,0.2606143 0.1214402,0.4410396 0.1214403,0.1804252 0.3469728,0.2004727 L 6.9914985,5.7736096 Q 8.2059028,5.9740819 8.9518938,6.6957833 9.697885,7.4174844 9.697885,9.1014538 v 2.1049612 q 0,1.704017 -0.9715234,2.626191 -0.9541747,0.902126 -2.6196433,0.902126 z M 7.5119573,2.1049617 H 3.6605616 q -0.7980369,0 -1.283799,0.5212287 Q 1.8910009,3.1273717 1.8910009,3.929262 v 1.6438749 q 0,0.8219375 0.2775779,1.1426935 0.294927,0.3007089 0.7459917,0.4009451 l 3.6605608,0.8620321 q 0.4857617,0.1202833 0.76334,0.4811339 0.2949266,0.3408034 0.2949266,1.2830235 v 1.162741 q 0,0.801891 -0.4857617,1.323119 -0.468413,0.501182 -1.2664501,0.501182 H 1.5613768 v 0.200472 h 4.3198093 q 0.8847802,0 1.405239,-0.561323 0.5204592,-0.581371 0.5204592,-1.46345 V 9.742965 q 0,-1.0424563 -0.3469728,-1.4434014 Q 7.1302875,7.8986186 6.6098287,7.7783349 L 2.9492679,6.9163031 Q 2.550249,6.8361141 2.3073681,6.5554523 2.0644873,6.2747908 2.0644873,5.5731369 V 3.929262 q 0,-0.7016541 0.4337159,-1.1627408 0.433716,-0.4610869 1.1623584,-0.4610869 h 3.8513957 z"
     style="font-size:57.045px;line-height:1.25;fill:#5f8dd3;stroke:none;stroke-width:0;stroke-miterlimit:4;stroke-dasharray:none"
     id="path91760" />
  <path
     d="m 26.511538,14.734732 q -0.329624,0 -0.485762,-0.160378 -0.138789,-0.180425 -0.138789,-0.561323 v -2.385623 q 0,-0.380898 0.138789,-0.541276 0.156138,-0.180426 0.485762,-0.180426 h 1.717513 V 4.1698293 h -1.717513 q -0.329624,0 -0.485762,-0.1603782 Q 25.886987,3.8290258 25.886987,3.4481279 V 1.02241 q 0,-0.38089791 0.138789,-0.54127591 0.156138,-0.1804253 0.485762,-0.1804253 h 7.390519 q 0.329621,0 0.468412,0.1804253 0.156137,0.160378 0.156137,0.54127591 v 2.4257179 q 0,0.3808979 -0.156137,0.5613232 -0.138791,0.1603782 -0.468412,0.1603782 h -1.68282 v 6.7358767 h 1.68282 q 0.329621,0 0.468412,0.180426 0.156137,0.160378 0.156137,0.541276 v 2.385623 q 0,0.380898 -0.156137,0.561323 -0.138791,0.160378 -0.468412,0.160378 z m 6.453691,-1.804253 V 12.730007 H 30.310887 V 2.3054343 h 2.654342 V 2.1049617 h -5.516864 v 0.2004726 h 2.689036 V 12.730007 h -2.689036 v 0.200472 z"
     style="font-size:57.045px;line-height:1.25;font-family:'Bungee Inline';-inkscape-font-specification:'Bungee Inline';fill:#fb521f;stroke:none;stroke-width:0;stroke-miterlimit:4;stroke-dasharray:none"
     id="path91763" />
  <path
     d="M 44.970478,14.734732 H 40.73741 q -2.168579,0 -3.226845,-1.002363 Q 36.46965,12.730007 36.46965,10.645092 V 4.4103962 q 0,-2.0849147 1.040915,-3.0872774 1.058266,-1.02241001 3.226845,-1.02241001 h 4.233068 q 0.329621,0 0.468412,0.1804253 0.156138,0.160378 0.156138,0.54127591 v 2.4257179 q 0,0.3808979 -0.156138,0.5613232 -0.138791,0.1603782 -0.468412,0.1603782 h -3.487077 q -0.537808,0 -0.798036,0.260614 -0.260229,0.2405672 -0.260229,0.7417485 V 9.943438 q 0,0.501181 0.260229,0.741749 0.260228,0.220519 0.798036,0.220519 h 3.487077 q 0.329621,0 0.468412,0.180426 0.156138,0.160378 0.156138,0.541276 v 2.385623 q 0,0.380898 -0.156138,0.561323 -0.138791,0.160378 -0.468412,0.160378 z M 44.016301,12.730007 H 41.11908 q -1.561376,0 -2.081834,-0.541276 -0.520458,-0.541276 -0.520458,-1.844348 V 4.7311522 q 0,-1.3231189 0.537804,-1.8643948 0.537811,-0.5613231 2.064488,-0.5613231 h 2.897221 V 2.1049617 H 41.11908 q -1.665468,0 -2.220625,0.6014177 -0.555154,0.6014177 -0.555154,2.0247728 v 5.6132308 q 0,1.383261 0.537804,1.984679 0.555158,0.601417 2.237975,0.601417 h 2.897221 z"
     style="font-size:57.045px;line-height:1.25;fill:#5f8dd3;stroke-width:1.393"
     id="path91766" />
  <path
     d="M 49.61988,12.930479 V 7.6380042 h 4.66678 q 0.954177,0 1.439939,0.4009451 0.485761,0.4009451 0.485761,1.3632127 v 3.528317 h 0.173488 V 9.402162 q 0,-1.0424567 -0.520462,-1.5035434 Q 55.344929,7.4375315 54.28666,7.4375315 H 53.575369 L 55.570458,2.1049617 H 55.379625 L 53.384532,7.4375315 H 49.61988 V 2.1049617 H 49.446393 V 12.930479 Z m 1.249102,1.804253 h -2.689041 q -0.329621,0 -0.485762,-0.160378 -0.138788,-0.180425 -0.138788,-0.561323 V 1.02241 q 0,-0.38089791 0.138788,-0.54127591 0.156141,-0.1804253 0.485762,-0.1804253 h 2.689041 q 0.329621,0 0.468412,0.1804253 0.156137,0.160378 0.156137,0.54127591 v 4.6108688 h 0.693948 l 1.786906,-4.67101061 q 0.121442,-0.3608506 0.329625,-0.5011814 0.208183,-0.160378 0.537807,-0.160378 h 2.671688 q 0.294928,0 0.39902,0.1804253 0.104091,0.160378 -0.01733,0.4811341 l -1.76956,4.67101061 q 0.971524,0.060142 1.544027,0.8018902 0.589854,0.7217011 0.589854,1.9245363 v 5.6533257 q 0,0.380898 -0.156138,0.561323 -0.138791,0.160378 -0.468412,0.160378 h -2.671688 q -0.329627,0 -0.485761,-0.160378 -0.138791,-0.180425 -0.138791,-0.561323 v -3.909215 q 0,-0.320756 -0.138788,-0.501181 Q 54.06115,9.422209 53.783575,9.422209 h -2.290021 v 4.590822 q 0,0.380898 -0.156141,0.561323 -0.138787,0.160378 -0.468409,0.160378 z"
     style="font-size:57.045px;line-height:1.25;font-family:'Bungee Inline';-inkscape-font-specification:'Bungee Inline';fill:#fb521f;stroke:none;stroke-width:0;stroke-miterlimit:4;stroke-dasharray:none"
     id="path91769" />
  <path
     d="m 65.962235,14.734732 h -2.810478 q -0.329621,0 -0.485762,-0.160378 -0.138788,-0.180425 -0.138788,-0.561323 V 4.1698293 h -2.550246 q -0.329628,0 -0.485762,-0.1603782 Q 59.352408,3.8290258 59.352408,3.4481279 V 1.02241 q 0,-0.38089791 0.138791,-0.54127591 0.156134,-0.1804253 0.485762,-0.1804253 h 9.160077 q 0.329621,0 0.468412,0.1804253 0.156137,0.160378 0.156137,0.54127591 v 2.4257179 q 0,0.3808979 -0.156137,0.5613232 -0.138791,0.1603782 -0.468412,0.1603782 h -2.55025 v 9.8432017 q 0,0.380898 -0.156137,0.561323 -0.138791,0.160378 -0.468416,0.160378 z m -1.491981,-1.804253 h 0.173487 V 2.3054343 h 3.55647 V 2.1049617 h -7.286426 v 0.2004726 h 3.556469 z"
     style="font-size:57.045px;line-height:1.25;font-family:'Bungee Inline';-inkscape-font-specification:'Bungee Inline';fill:#fb521f;stroke-width:1.393"
     id="path91772" />
  <path
     d="m 81.940274,10.945801 q 0,0.922173 -0.242879,1.683969 -0.225536,0.741749 -0.832736,1.283024 -0.589853,0.521229 -1.648122,0.821938 -1.040915,0.300709 -2.654338,0.300709 -1.613422,0 -2.671688,-0.300709 Q 72.832243,14.434023 72.225043,13.912794 71.63519,13.371519 71.392307,12.62977 71.166774,11.867974 71.166774,10.945801 V 4.1096873 q 0,-0.9221739 0.225533,-1.6639222 0.242883,-0.7617957 0.832736,-1.3030716 0.6072,-0.5412759 1.665468,-0.8419847 Q 74.948777,0 76.562199,0 q 1.613423,0 2.654338,0.3007088 1.058269,0.3007088 1.648122,0.8419847 0.6072,0.5412759 0.832736,1.3030716 0.242879,0.7417483 0.242879,1.6639222 z M 80.049273,10.484714 V 4.5707743 q 0,-1.2028355 -0.745991,-1.9445839 -0.74599,-0.7617957 -2.775779,-0.7617957 -2.029792,0 -2.758436,0.7617957 -0.728641,0.7417484 -0.728641,1.9445839 v 5.9139397 q 0,1.202835 0.728641,1.964631 0.728644,0.741748 2.758436,0.741748 2.029789,0 2.775779,-0.741748 0.745991,-0.761796 0.745991,-1.964631 z m -6.83536,0 V 4.5707743 q 0,-1.1226464 0.693945,-1.8042531 0.693944,-0.701654 2.619645,-0.701654 1.925697,0 2.636992,0.701654 0.711291,0.6816067 0.711291,1.8042531 v 5.9139397 q 0,1.122646 -0.711291,1.8243 -0.711295,0.681607 -2.636992,0.681607 -1.925701,0 -2.619645,-0.681607 -0.693945,-0.701654 -0.693945,-1.8243 z M 75.104914,10.2241 q 0,0.400945 0.260229,0.681606 0.260229,0.260614 1.197056,0.260614 0.936827,0 1.197053,-0.260614 0.260232,-0.280661 0.260232,-0.681606 V 4.8313883 q 0,-0.3808976 -0.260232,-0.6415119 -0.260226,-0.2806615 -1.197053,-0.2806615 -0.936827,0 -1.197056,0.2806615 -0.260229,0.2606143 -0.260229,0.6415119 z"
     style="font-size:57.045px;line-height:1.25;font-family:'Bungee Inline';-inkscape-font-specification:'Bungee Inline';fill:#fb521f;stroke-width:1.393"
     id="path91775" />
  <g
     id="path141484"
     transform="matrix(0.30412185,0,0,0.35142878,-3.3204702,-4.2723951)"
     style="font-size:57.045px;fill:#014461;stroke:none;stroke-width:0;stroke-miterlimit:4;stroke-dasharray:none">
    <path
       style="color:#000000;fill:#5f8dd3;stroke:none;stroke-width:0;stroke-miterlimit:4;stroke-dasharray:none"
       d="m 158.78815,54.085289 h -13.91898 q -7.13063,0 -10.61037,-2.85225 -3.4227,-2.85225 -3.4227,-8.78493 V 24.707115 q 0,-5.93268 3.4227,-8.78493 3.47974,-2.909295 10.61037,-2.909295 h 13.91898 q 1.08385,0 1.54021,0.513405 0.51341,0.45636 0.51341,1.540215 v 6.902445 q 0,1.083855 -0.51341,1.59726 -0.45636,0.45636 -1.54021,0.45636 H 147.3221 q -1.76839,0 -2.62407,0.741585 -0.85567,0.68454 -0.85567,2.110665 v 13.576709 q 0,1.426125 0.85567,2.110665 0.85568,0.627495 2.62407,0.627495 h 11.46605 q 1.08385,0 1.54021,0.513405 0.51341,0.45636 0.51341,1.540215 v 6.788355 q 0,1.083855 -0.51341,1.59726 -0.45636,0.45636 -1.54021,0.45636 z m -3.13748,-5.7045 h -9.52651 q -5.13405,0 -6.8454,-1.540215 -1.71135,-1.540215 -1.71135,-5.24814 V 25.619835 q 0,-3.76497 1.76839,-5.305185 1.7684,-1.59726 6.78836,-1.59726 h 9.52651 v -0.57045 h -9.52651 q -5.47632,0 -7.30176,1.71135 -1.82544,1.71135 -1.82544,5.761545 v 15.972599 q 0,3.936105 1.76839,5.647455 1.82544,1.71135 7.35881,1.71135 h 9.52651 z"
       id="path91778" />
  </g>
  <path
     d="M 97.930115,14.026234 96.2796,14.355058 c -0.181314,0.03612 -0.321102,-0.04964 -0.408674,-0.148916 -0.07784,-0.111687 -0.116766,-0.285423 -0.116766,-0.521207 V 1.6227244 c 0,-0.235784 0.03892,-0.4033147 0.116766,-0.5025921 0.08757,-0.1116872 0.225323,-0.19124111 0.408674,-0.16753071 l 1.911528,0.24719601 c 0.183354,0.023711 0.31624,0.055844 0.394083,0.1675306 0.08757,0.099277 0.13136,0.2668082 0.13136,0.5025922 v 4.2813401 l 1.761999,0.2294876 1.23211,-4.7162819 c 0.0681,-0.2233742 0.16056,-0.3784953 0.27732,-0.465363 0.11676,-0.099277 0.26789,-0.1382683 0.45246,-0.1489162 l 1.69156,-0.097585 c 0.16515,-0.00953 0.27732,0.055844 0.33571,0.16753071 0.0584,0.099277 0.0535,0.2481936 -0.0146,0.4467485 l -1.48875,4.3371839 c 0.5449,0.037229 0.9779,0.2854227 1.299,0.7445809 0.33084,0.4467486 0.49626,1.0424133 0.49626,1.7869942 v 5.2492948 c 0,0.235784 -0.0438,0.40952 -0.13136,0.521207 -0.0779,0.09928 -0.22092,0.213666 -0.39409,0.148916 l -1.3387,-0.500553 c -0.17317,-0.06475 -0.3211,-0.04964 -0.40868,-0.148916 -0.0778,-0.111688 -0.11676,-0.285423 -0.11676,-0.521207 V 9.55455 c 0,-0.198555 -0.0389,-0.353676 -0.11677,-0.4653629 -0.0778,-0.1116873 -0.19697,-0.1945944 -0.35029,-0.1675309 l -3.447432,0.1717289 v 4.2627259 c 0,0.235784 -0.04378,0.409519 -0.13136,0.521207 -0.07784,0.09928 -0.209203,0.148916 -0.394083,0.148916 z"
     style="font-size:50.419px;line-height:1.25;font-family:Bungee;-inkscape-font-specification:Bungee;fill:#ffffff;fill-opacity:1;stroke-width:0.264583"
     id="path91781" />
  <path
     d="m 91.871603,14.638314 h -3.561324 c -1.216299,0 -2.121225,-0.328587 -2.714779,-0.985761 -0.583822,-0.657175 -0.875733,-1.669223 -0.875733,-3.036146 V 4.484971 c 0,-1.3669227 0.291911,-2.3789711 0.875733,-3.0361454 0.593554,-0.67031781 1.49848,-1.00547671 2.714779,-1.00547671 h 3.561324 c 0.184877,0 0.316237,0.059146 0.39408,0.1774371 0.08757,0.1051478 0.194325,0.2906527 0.13136,0.53231121 l -0.377757,1.4498573 c -0.06296,0.2416584 -0.04379,0.433735 -0.13136,0.5520267 -0.07784,0.1051478 -0.209203,0.157722 -0.39408,0.157722 h -2.933715 c -0.30164,0 -0.52544,0.085433 -0.671393,0.256298 -0.145958,0.1577216 -0.212767,0.400934 -0.218936,0.7294635 l -0.116001,6.1773933 c -0.0062,0.328529 0.07298,0.571741 0.218935,0.729463 0.145954,0.144578 0.369751,0.216867 0.671394,0.216867 h 2.933715 c 0.184874,0 0.316234,0.05915 0.39408,0.177437 0.08757,0.105148 0.06518,0.291513 0.13136,0.532311 l 0.493758,1.79663 c 0.06618,0.240798 -0.04379,0.433735 -0.13136,0.552026 -0.07784,0.105148 -0.209203,0.157722 -0.39408,0.157722 z"
     style="font-size:50.419px;line-height:1.25;font-family:Bungee;-inkscape-font-specification:Bungee;fill:#ffffff;fill-opacity:1;stroke-width:0.264583"
     id="path91784" />
  <path
     d="m 92.544292,14.734732 h -4.233068 q -2.16858,0 -3.226845,-1.002363 -1.040916,-1.002362 -1.040916,-3.087277 V 4.4103962 q 0,-2.0849147 1.040916,-3.0872774 1.058265,-1.02241001 3.226845,-1.02241001 h 4.233068 q 0.329621,0 0.468412,0.1804253 0.156137,0.160378 0.156137,0.54127591 v 2.4257179 q 0,0.3808979 -0.156137,0.5613232 -0.138791,0.1603782 -0.468412,0.1603782 h -3.487078 q -0.537807,0 -0.798036,0.260614 -0.260229,0.2405672 -0.260229,0.7417485 V 9.943438 q 0,0.501181 0.260229,0.741749 0.260229,0.220519 0.798036,0.220519 h 3.487078 q 0.329621,0 0.468412,0.180426 0.156137,0.160378 0.156137,0.541276 v 2.385623 q 0,0.380898 -0.156137,0.561323 -0.138791,0.160378 -0.468412,0.160378 z m -0.954177,-2.004725 h -2.897221 q -1.561377,0 -2.081835,-0.541276 -0.520457,-0.541276 -0.520457,-1.844348 V 4.7311522 q 0,-1.3231189 0.537804,-1.8643948 0.537811,-0.5613231 2.064488,-0.5613231 h 2.897221 V 2.1049617 h -2.897221 q -1.665468,0 -2.220626,0.6014177 -0.555154,0.6014177 -0.555154,2.0247728 v 5.6132308 q 0,1.383261 0.537805,1.984679 0.555157,0.601417 2.237975,0.601417 h 2.897221 z"
     style="font-size:57.045px;line-height:1.25;fill:#5f8dd3;stroke-width:1.393"
     id="path91787" />
  <path
     d="M 97.193693,12.930479 V 7.6380042 h 4.666777 q 0.95418,0 1.43994,0.4009451 0.48576,0.4009451 0.48576,1.3632127 v 3.528317 h 0.17349 V 9.402162 q 0,-1.0424567 -0.52046,-1.5035434 -0.52046,-0.4610871 -1.57873,-0.4610871 h -0.71129 l 1.99509,-5.3325698 h -0.19083 l -1.99509,5.3325698 H 97.193693 V 2.1049617 H 97.020206 V 12.930479 Z m 1.249102,1.804253 h -2.689041 q -0.329621,0 -0.485762,-0.160378 -0.138787,-0.180425 -0.138787,-0.561323 V 1.02241 q 0,-0.38089791 0.138787,-0.54127591 0.156141,-0.1804253 0.485762,-0.1804253 h 2.689041 q 0.329621,0 0.468412,0.1804253 0.156137,0.160378 0.156137,0.54127591 v 4.6108688 h 0.693946 l 1.78691,-4.67101061 q 0.12144,-0.3608506 0.32962,-0.5011814 0.20819,-0.160378 0.53781,-0.160378 h 2.67169 q 0.29493,0 0.39902,0.1804253 0.10409,0.160378 -0.0173,0.4811341 l -1.76956,4.67101061 q 0.97153,0.060142 1.54403,0.8018902 0.58985,0.7217011 0.58985,1.9245363 v 5.6533257 q 0,0.380898 -0.15614,0.561323 -0.13879,0.160378 -0.46841,0.160378 h -2.67169 q -0.32962,0 -0.48576,-0.160378 -0.13879,-0.180425 -0.13879,-0.561323 v -3.909215 q 0,-0.320756 -0.13879,-0.501181 -0.13879,-0.180426 -0.41636,-0.180426 h -2.290023 v 4.590822 q 0,0.380898 -0.15614,0.561323 -0.138788,0.160378 -0.468409,0.160378 z"
     style="font-size:57.045px;line-height:1.25;font-family:'Bungee Inline';-inkscape-font-specification:'Bungee Inline';fill:#fb521f;stroke:none;stroke-width:0;stroke-miterlimit:4;stroke-dasharray:none"
     id="path91790" />
  <g
     id="path141484-4"
     transform="matrix(0.30412185,0,0,0.35142878,44.253322,-4.2723951)"
     style="font-size:57.045px;fill:#014461;stroke:none;stroke-width:0;stroke-miterlimit:4;stroke-dasharray:none">
    <path
       style="color:#000000;fill:#5f8dd3;stroke:none;stroke-width:0;stroke-miterlimit:4;stroke-dasharray:none"
       d="m 158.78815,54.085289 h -13.91898 q -7.13063,0 -10.61037,-2.85225 -3.4227,-2.85225 -3.4227,-8.78493 V 24.707115 q 0,-5.93268 3.4227,-8.78493 3.47974,-2.909295 10.61037,-2.909295 h 13.91898 q 1.08385,0 1.54021,0.513405 0.51341,0.45636 0.51341,1.540215 v 6.902445 q 0,1.083855 -0.51341,1.59726 -0.45636,0.45636 -1.54021,0.45636 H 147.3221 q -1.76839,0 -2.62407,0.741585 -0.85567,0.68454 -0.85567,2.110665 v 13.576709 q 0,1.426125 0.85567,2.110665 0.85568,0.627495 2.62407,0.627495 h 11.46605 q 1.08385,0 1.54021,0.513405 0.51341,0.45636 0.51341,1.540215 v 6.788355 q 0,1.083855 -0.51341,1.59726 -0.45636,0.45636 -1.54021,0.45636 z m -3.13748,-5.7045 h -9.52651 q -5.13405,0 -6.8454,-1.540215 -1.71135,-1.540215 -1.71135,-5.24814 V 25.619835 q 0,-3.76497 1.76839,-5.305185 1.7684,-1.59726 6.78836,-1.59726 h 9.52651 v -0.57045 h -9.52651 q -5.47632,0 -7.30176,1.71135 -1.82544,1.71135 -1.82544,5.761545 v 15.972599 q 0,3.936105 1.76839,5.647455 1.82544,1.71135 7.35881,1.71135 h 9.52651 z"
       id="path91793" />
  </g>
  <g
     id="path3254"
     transform="matrix(0.32692074,0,0,0.32692074,-14.219196,-4.2723951)"
     style="stroke-width:3.05885">
    <path
       style="color:#000000;fill:#fb521f;fill-rule:evenodd;stroke-width:1.61864;stroke-linecap:round;stroke-linejoin:round;-inkscape-stroke:none"
       d="m 103.65739,52.096695 c 0.0173,4.357642 -4.150903,6.208379 -6.707525,6.142932 -2.643443,-0.06797 -6.636585,-3.089687 -6.444775,-6.744276 l 0.212508,-32.067825 c 0.04201,-4.279972 4.443523,-5.679486 6.468023,-5.668179 2.644791,0.01574 6.486649,1.841424 6.684279,5.762198 z"
       id="path91799" />
    <path
       style="color:#000000;fill:#ffffff;fill-rule:evenodd;stroke-width:3.05885;stroke-linecap:round;stroke-linejoin:round;-inkscape-stroke:none"
       d="m 97.1875,13.494141 c -1.074285,-0.006 -2.710997,0.349421 -4.123047,1.267578 -1.412049,0.918156 -2.589436,2.433676 -2.611328,4.664062 l -0.212891,32.056641 c -0.101141,1.927072 0.898349,3.664669 2.244141,4.923828 1.345792,1.259159 3.039971,2.06117 4.458984,2.097656 1.345768,0.03445 3.069381,-0.426254 4.482421,-1.464844 1.41305,-1.038589 2.50508,-2.680033 2.4961,-4.943359 l 0.21289,-32.572266 a 0.26460996,0.26460996 0 0 0 0,-0.01563 c -0.10305,-2.044413 -1.16868,-3.561834 -2.53516,-4.546874 -1.36648,-0.985041 -3.029601,-1.45857 -4.41211,-1.466797 z m -0.0039,0.529297 c 1.262279,0.0075 2.84237,0.455258 4.10743,1.367187 1.26505,0.911929 2.21987,2.268175 2.31445,4.144531 l -0.21289,32.560547 a 0.26460996,0.26460996 0 0 0 0,0.002 c 0.008,2.094312 -0.97537,3.555799 -2.28125,4.515625 -1.30589,0.959826 -2.943451,1.392325 -4.154303,1.361328 -1.224427,-0.03148 -2.847644,-0.772741 -4.111328,-1.955078 -1.263684,-1.182336 -2.16684,-2.782252 -2.076172,-4.509765 a 0.26460996,0.26460996 0 0 0 0,-0.01172 l 0.212891,-32.06836 c 0.02012,-2.049581 1.063809,-3.375844 2.36914,-4.224609 1.305332,-0.848765 2.881819,-1.186948 3.832032,-1.18164 z"
       id="path91796" />
  </g>
  <path
     style="color:#000000;fill:#ffffff;fill-rule:evenodd;stroke-width:1;-inkscape-stroke:none"
     d="m 15.109809,3.5679561 c -0.3331,-0.00239 -0.604567,0.2667787 -0.607868,0.5995674 l -0.0332,3.2985792 c -0.0033,0.3334004 0.266471,0.6061137 0.599567,0.6085068 l 5.456766,0.03895 c 0.333103,0.00239 0.604454,-0.2661765 0.60787,-0.5989292 l 0.0332,-3.2992174 c 0.0033,-0.3334003 -0.267111,-0.6061137 -0.600207,-0.6085071 z m -0.0013,0.1730381 5.45613,0.038949 c 0.240258,0.00173 0.430836,0.1936122 0.428443,0.4335531 l -0.0332,3.2992178 c -0.0026,0.2405902 -0.193272,0.430163 -0.433529,0.4284453 L 15.069582,7.9015713 C 14.829324,7.8998386 14.639385,7.70796 14.641776,7.4680182 l 0.0332,-3.2992178 c 0.0024,-0.2405532 0.193298,-0.4295238 0.433553,-0.4278062 z"
     id="path91802" />
  <g
     id="g89077"
     transform="matrix(0.32692074,0,0,0.32692074,-14.219196,-4.2723951)"
     style="stroke-width:3.05885">
    <g
       id="g89055"
       style="stroke-width:3.05885">
      <g
         id="g89034"
         style="stroke-width:3.05885">
        <g
           id="g89014"
           style="stroke-width:3.05885">
          <g
             id="g88995"
             style="stroke-width:3.05885">
            <g
               id="g88977"
               style="stroke-width:3.05885">
              <g
                 id="g88960"
                 style="stroke-width:3.05885">
                <g
                   id="g88944"
                   style="stroke-width:3.05885">
                  <g
                     id="g88929"
                     style="stroke-width:3.05885">
                    <g
                       id="g71429"
                       style="stroke-width:3.05885">
                      <g
                         id="g71415"
                         style="stroke-width:3.05885">
                        <g
                           id="layer1-4"
                           transform="matrix(0.2254183,-0.2222502,0.22228204,0.2254506,66.782732,36.986879)"
                           style="stroke-width:2.55644">
                          <g
                             id="g3250"
                             transform="rotate(-90,66.69955,65.03045)"
                             style="stroke-width:2.55644" />
                          <g
                             id="g3244"
                             style="stroke-width:2.55644">
                            <g
                               id="rect3026"
                               style="stroke-width:2.55644">
                              <path
                                 style="color:#000000;fill:#fb521f;fill-rule:evenodd;stroke-width:5.11289;stroke-linecap:round;stroke-linejoin:round;-inkscape-stroke:none"
                                 d="M 32.422143,40.512126 C 22.582752,30.886281 27.663314,17.405291 33.479975,11.799348 39.494837,6.003689 54.005163,2.5977678 61.799601,11.134668 l 67.758519,67.758507 c 9.53321,9.586954 2.92035,22.592065 -1.59453,27.121085 -5.90038,5.91453 -18.52619,10.50761 -27.78294,2.25638 z"
                                 id="path91814" />
                              <path
                                 style="color:#000000;fill:#ffffff;fill-rule:evenodd;stroke-width:2.55644;stroke-linecap:round;stroke-linejoin:round;-inkscape-stroke:none"
                                 d="M 51.078125,5.234375 C 49.684113,5.1127275 48.277544,5.1281371 46.892578,5.2597656 41.352716,5.7862796 36.090724,8.1231992 32.900391,11.197266 29.838585,14.148153 27.05144,19.0453 26.253906,24.527344 c -0.797533,5.482044 0.473481,11.582442 5.583985,16.582031 l 67.751953,67.751955 a 0.83583857,0.83583857 0 0 0 0.03516,0.0332 c 4.826756,4.30245 10.599896,5.27395 15.845696,4.38477 5.24581,-0.88919 9.99969,-3.58214 13.08399,-6.67383 a 0.83583857,0.83583857 0 0 0 0,-0.002 c 2.39578,-2.40329 5.22676,-6.873231 6.29297,-12.085942 1.0662,-5.212711 0.27069,-11.21692 -4.69727,-16.212891 a 0.83583857,0.83583857 0 0 0 -0.002,-0.002 L 62.416016,10.570313 C 59.334526,7.1952939 55.260162,5.5993175 51.078125,5.234375 Z m -0.15625,1.6601562 c 3.837149,0.3274467 7.495433,1.7750842 10.259766,4.8027348 a 0.83583857,0.83583857 0 0 0 0.02734,0.0293 L 128.9668,79.484375 c 4.56335,4.590487 5.22963,9.881127 4.24414,14.699219 -0.98564,4.818828 -3.72076,9.114506 -5.83985,11.240236 -2.81607,2.82283 -7.32331,5.38385 -12.17968,6.20703 -4.85434,0.82283 -10.02048,-0.0359 -14.44922,-3.98047 -0.002,-0.002 -0.004,-0.002 -0.006,-0.004 L 33.013672,39.921875 a 0.83583857,0.83583857 0 0 0 -0.0078,-0.0078 c -4.72889,-4.626258 -5.836685,-10.078156 -5.099622,-15.144544 0.737063,-5.066387 3.399448,-9.71409 6.154297,-12.36914 2.824522,-2.7215871 7.822619,-4.9854276 12.990234,-5.4765629 1.291904,-0.1227838 2.592044,-0.1384457 3.871094,-0.029297 z"
                                 id="path91811" />
                            </g>
                            <path
                               id="path91808"
                               style="fill:#ff9955;fill-rule:evenodd;stroke-width:2.55644"
                               d="M 48.982048,45.85515 72.500547,22.807502 c 1.978392,-1.938784 5.112382,-1.958686 7.071068,0 l 37.278675,37.278669 c 1.95868,1.958686 1.9784,5.132286 0,7.071068 L 93.331785,90.204881 c -1.978396,1.938786 -5.112382,1.95869 -7.071068,0 L 48.982048,52.926218 c -1.958685,-1.958686 -1.978392,-5.132284 0,-7.071068 z" />
                            <path
                               id="path91805"
                               style="fill:url(#pattern3224);fill-rule:evenodd;stroke-width:2.55644;filter:url(#filter87882)"
                               d="m 76.184776,23.077917 c -1.278,0 -2.312,0.13 -3.292,1.109 l -22.412,20.972 c -1.959,1.959 -1.959,5.104 0,7.062 l 37.281,37.282 c 1.959,1.958 4.424,1.449 6.383,-0.51 l 21.302994,-21.303 c 1.96,-1.959 2.55,-4.623 0.59,-6.582 l -36.201994,-36.081 c -0.979,-0.979 -2.373,-1.949 -3.651,-1.949 z" />
                          </g>
                        </g>
                      </g>
                    </g>
                  </g>
                </g>
              </g>
            </g>
          </g>
        </g>
      </g>
    </g>
  </g>
  <path
     d="m 57.820072,20.546538 q 1.163219,0 1.784665,0.446167 0.629413,0.4382 0.629413,1.314597 0,0.478035 -0.175279,0.820627 -0.167313,0.334624 -0.49397,0.54974 -0.31869,0.207149 -0.780792,0.302756 -0.4621,0.0956 -1.043709,0.0956 h -0.613479 v 2.047585 h -0.772824 v -5.44163 q 0.326657,-0.07967 0.72502,-0.103573 0.40633,-0.03187 0.740955,-0.03187 z m 0.06373,0.677218 q -0.493971,0 -0.75689,0.0239 v 2.167092 h 0.581609 q 0.398363,0 0.717053,-0.04781 0.318691,-0.05577 0.533807,-0.175279 0.223083,-0.127476 0.342592,-0.342592 0.119508,-0.215116 0.119508,-0.54974 0,-0.318691 -0.127475,-0.525839 -0.119509,-0.207149 -0.334625,-0.326658 -0.207149,-0.127476 -0.486002,-0.175279 -0.278854,-0.04781 -0.589577,-0.04781 z"
     style="font-size:133.703px;line-height:1.25;font-family:Ubuntu;-inkscape-font-specification:Ubuntu;fill:url(#linearGradient62102);stroke-width:0.332736"
     id="path91817" />
  <path
     d="m 63.899086,23.813113 q 0.127475,0.159345 0.318689,0.422265 0.199182,0.254952 0.406331,0.573642 0.207148,0.310723 0.406329,0.653315 0.207149,0.342591 0.35056,0.661282 h -0.844529 q -0.159345,-0.302756 -0.350559,-0.613479 -0.183248,-0.310723 -0.374462,-0.589576 -0.191213,-0.286822 -0.382427,-0.533807 -0.183247,-0.246984 -0.334626,-0.430231 -0.103572,0.008 -0.215115,0.008 -0.103573,0 -0.215116,0 h -0.69315 v 2.159127 h -0.772825 v -5.441635 q 0.326658,-0.07967 0.72502,-0.103573 0.40633,-0.03187 0.740955,-0.03187 1.163219,0 1.768731,0.4382 0.613478,0.438198 0.613478,1.306629 0,0.549742 -0.294788,0.940137 -0.286821,0.390395 -0.852496,0.581609 z m -1.171187,-2.589357 q -0.493969,0 -0.756888,0.0239 v 2.079453 h 0.549739 q 0.398363,0 0.717053,-0.03984 0.318691,-0.03984 0.533807,-0.151377 0.223083,-0.111541 0.342591,-0.310723 0.119509,-0.207149 0.119509,-0.541774 0,-0.310723 -0.119509,-0.517872 -0.119508,-0.207144 -0.326657,-0.326653 -0.199181,-0.119508 -0.478036,-0.167312 -0.270886,-0.04781 -0.581609,-0.04781 z"
     style="font-size:133.703px;line-height:1.25;font-family:Ubuntu;-inkscape-font-specification:Ubuntu;fill:url(#linearGradient62104);stroke-width:0.332736"
     id="path91820" />
  <path
     d="m 66.209588,20.60231 h 0.772823 v 5.521307 h -0.772823 z"
     style="font-size:133.703px;line-height:1.25;font-family:Ubuntu;-inkscape-font-specification:Ubuntu;fill:url(#linearGradient62106);stroke-width:0.332736"
     id="path91823" />
  <path
     d="m 72.814434,20.60231 q -0.302756,0.876397 -0.581609,1.62532 -0.270886,0.740954 -0.533805,1.410204 -0.26292,0.669249 -0.525839,1.282728 -0.254953,0.605511 -0.52584,1.203055 h -0.72502 q -0.270886,-0.597544 -0.533806,-1.203055 -0.254952,-0.613479 -0.525838,-1.282728 -0.26292,-0.66925 -0.541774,-1.410204 -0.278854,-0.748923 -0.573642,-1.62532 h 0.852496 q 0.430232,1.258826 0.844529,2.422045 0.414297,1.163219 0.852496,2.183028 0.438199,-1.011842 0.852497,-2.17506 0.414297,-1.171187 0.836562,-2.430013 z"
     style="font-size:133.703px;line-height:1.25;font-family:Ubuntu;-inkscape-font-specification:Ubuntu;fill:url(#linearGradient62108);stroke-width:0.332736"
     id="path91826" />
  <path
     d="M 76.774145,26.123617 Q 76.638701,25.765091 76.519192,25.422499 76.399683,25.07194 76.272208,24.713413 h -2.501719 l -0.501937,1.410204 h -0.804693 q 0.31869,-0.876398 0.597544,-1.617353 0.278854,-0.748921 0.541774,-1.418171 0.270886,-0.669249 0.533806,-1.274761 0.262919,-0.613478 0.54974,-1.211022 h 0.709086 q 0.286821,0.597544 0.549741,1.211022 0.262919,0.605512 0.525839,1.274761 0.270887,0.66925 0.54974,1.418171 0.278854,0.740955 0.597544,1.617353 z m -0.725021,-2.047585 q -0.254952,-0.693151 -0.509904,-1.338498 -0.246985,-0.653315 -0.517872,-1.250859 -0.278854,0.597544 -0.533806,1.250859 -0.246986,0.645347 -0.49397,1.338498 z"
     style="font-size:133.703px;line-height:1.25;font-family:Ubuntu;-inkscape-font-specification:Ubuntu;fill:url(#linearGradient62110);stroke-width:0.332736"
     id="path91829" />
  <path
     d="m 80.590436,26.243126 q -0.58161,0 -1.059645,-0.191214 -0.478036,-0.191214 -0.820627,-0.557707 -0.342593,-0.366495 -0.533807,-0.900301 -0.183246,-0.541773 -0.183246,-1.234924 0,-0.693152 0.207149,-1.226957 0.215115,-0.541774 0.573642,-0.908267 0.358526,-0.366495 0.836562,-0.557709 0.478035,-0.191214 1.019809,-0.191214 0.342591,0 0.613478,0.04781 0.278854,0.04781 0.478035,0.111541 0.207149,0.06373 0.334625,0.127476 0.127475,0.06373 0.175279,0.0956 l -0.223083,0.637381 q -0.0717,-0.04781 -0.207149,-0.103573 -0.135442,-0.05578 -0.310723,-0.111541 -0.167312,-0.05578 -0.37446,-0.08764 -0.199182,-0.03984 -0.40633,-0.03984 -0.4382,0 -0.788758,0.151377 -0.35056,0.151378 -0.597545,0.438199 -0.246985,0.286821 -0.382427,0.701119 -0.127477,0.40633 -0.127477,0.916234 0,0.49397 0.111541,0.9003 0.119508,0.40633 0.350559,0.701118 0.23105,0.286821 0.573642,0.446167 0.350559,0.159344 0.81266,0.159344 0.533806,0 0.884366,-0.111541 0.350558,-0.111541 0.525838,-0.199181 l 0.199181,0.63738 q -0.05578,0.03984 -0.199181,0.103573 -0.14341,0.05578 -0.358526,0.11154 -0.215117,0.05578 -0.501937,0.0956 -0.286821,0.03984 -0.621446,0.03984 z"
     style="font-size:133.703px;line-height:1.25;font-family:Ubuntu;-inkscape-font-specification:Ubuntu;fill:url(#linearGradient62112);stroke-width:0.332736"
     id="path91832" />
  <path
     d="M 84.605911,26.123617 V 23.90872 q -0.54974,-0.852495 -1.035743,-1.68109 -0.486002,-0.828595 -0.916235,-1.62532 h 0.908269 q 0.302754,0.653314 0.677216,1.330531 0.37446,0.66925 0.772823,1.290695 0.390395,-0.621445 0.764857,-1.290695 0.374461,-0.677217 0.685184,-1.330531 h 0.860463 q -0.430231,0.796725 -0.916234,1.62532 -0.486003,0.820627 -1.027777,1.665155 v 2.230832 z"
     style="font-size:133.703px;line-height:1.25;font-family:Ubuntu;-inkscape-font-specification:Ubuntu;fill:url(#linearGradient62114);stroke-width:0.332736"
     id="path91835" />
  <path
     d="m 89.338457,25.573877 q 1.211023,0 1.211023,-0.828595 0,-0.254952 -0.111541,-0.430232 -0.103573,-0.183247 -0.286821,-0.310723 -0.183247,-0.135444 -0.422265,-0.231049 -0.231051,-0.0956 -0.49397,-0.191215 -0.302755,-0.103572 -0.573642,-0.23105 -0.270887,-0.135444 -0.470068,-0.310723 -0.199182,-0.183248 -0.31869,-0.430232 -0.111541,-0.246985 -0.111541,-0.597544 0,-0.725021 0.493969,-1.131351 0.49397,-0.40633 1.3624,-0.40633 0.501937,0 0.908267,0.111541 0.414298,0.103573 0.605512,0.231051 l -0.246984,0.629412 q -0.167314,-0.103573 -0.501937,-0.199181 -0.326659,-0.103573 -0.764858,-0.103573 -0.223082,0 -0.414297,0.04781 -0.191214,0.04781 -0.334624,0.143409 -0.143411,0.0956 -0.231051,0.246986 -0.07967,0.14341 -0.07967,0.342591 0,0.223084 0.08764,0.374462 0.08764,0.151377 0.246986,0.270886 0.159344,0.111541 0.366493,0.207149 0.215116,0.09561 0.470068,0.191214 0.358527,0.143411 0.653316,0.286821 0.302755,0.143411 0.517871,0.342592 0.223084,0.199182 0.342591,0.478035 0.11951,0.270886 0.11951,0.661282 0,0.72502 -0.533807,1.115415 -0.525838,0.390397 -1.489877,0.390397 -0.326657,0 -0.605511,-0.04781 -0.270886,-0.03984 -0.486002,-0.09561 -0.215116,-0.06373 -0.374461,-0.127476 -0.151378,-0.0717 -0.239018,-0.11951 l 0.231051,-0.63738 q 0.183247,0.103573 0.557707,0.231051 0.374462,0.127476 0.916234,0.127476 z"
     style="font-size:133.703px;line-height:1.25;font-family:Ubuntu;-inkscape-font-specification:Ubuntu;fill:url(#linearGradient62116);stroke-width:0.332736"
     id="path91838" />
  <path
     d="M 95.983145,26.123617 Q 95.847701,25.765091 95.728194,25.422499 95.608684,25.07194 95.481208,24.713413 H 92.97949 l -0.501937,1.410204 h -0.804692 q 0.31869,-0.876398 0.597543,-1.617353 0.278854,-0.748921 0.541773,-1.418171 0.270888,-0.669249 0.533807,-1.274761 0.26292,-0.613478 0.549741,-1.211022 h 0.709085 q 0.286821,0.597544 0.54974,1.211022 0.26292,0.605512 0.525839,1.274761 0.270887,0.66925 0.549742,1.418171 0.278853,0.740955 0.597543,1.617353 z m -0.72502,-2.047585 q -0.254952,-0.693151 -0.509905,-1.338498 -0.246984,-0.653315 -0.517872,-1.250859 -0.278853,0.597544 -0.533805,1.250859 -0.246985,0.645347 -0.493969,1.338498 z"
     style="font-size:133.703px;line-height:1.25;font-family:Ubuntu;-inkscape-font-specification:Ubuntu;fill:url(#linearGradient62118);stroke-width:0.332736"
     id="path91841" />
  <path
     d="M 97.576581,26.123617 V 20.60231 h 3.330309 v 0.661281 h -2.557485 v 1.665157 h 2.270655 v 0.653315 h -2.270655 v 2.541554 z"
     style="font-size:133.703px;line-height:1.25;font-family:Ubuntu;-inkscape-font-specification:Ubuntu;fill:url(#linearGradient62120);stroke-width:0.332736"
     id="path91844" />
  <path
     d="M 101.85497,26.123617 V 20.60231 h 3.37015 v 0.661281 h -2.59732 v 1.641255 h 2.31049 v 0.645348 h -2.31049 v 1.912141 h 2.7965 v 0.661282 z"
     style="font-size:133.703px;line-height:1.25;font-family:Ubuntu;-inkscape-font-specification:Ubuntu;fill:url(#linearGradient62122);stroke-width:0.332736"
     id="path91847" />
  <path
     id="path91850"
     style="fill:url(#linearGradient4888);fill-opacity:1;stroke:none;stroke-width:0.83079"
     d="m 50.82982,19.569377 c -1.613288,0.0032 -2.935948,1.280179 -2.995802,2.892359 h 1.359704 c 0.06688,-0.927516 0.784403,-1.644139 1.64859,-1.646523 0.864216,0.0024 1.581787,0.718977 1.64867,1.646523 h 1.339961 C 53.771013,20.847498 52.44517,19.569709 50.82982,19.569377 Z" />
  <path
     id="path91853"
     style="fill:url(#linearGradient888);fill-opacity:1;stroke:none;stroke-width:0.83079"
     d="m 47.27709,22.754764 v 0.81254 h 7.023677 v -0.81254 z m 0,1.10557 v 0.805144 h 7.023677 v -0.805144 z m 0.909256,1.098174 c 0.505547,0.947016 1.500653,1.58962 2.643474,1.591881 1.144856,-2.28e-4 2.142477,-0.643283 2.648867,-1.591881 z" />
</svg>
