<?xml version="1.0" encoding="UTF-8" standalone="no"?>
<!-- Created with Inkscape (http://www.inkscape.org/) -->

<svg
   width="406.00009"
   height="106.91021"
   viewBox="0 0 107.42086 28.286659"
   version="1.1"
   id="svg5"
   xmlns:xlink="http://www.w3.org/1999/xlink"
   xmlns="http://www.w3.org/2000/svg"
   xmlns:svg="http://www.w3.org/2000/svg">
  <defs
     id="defs2">
    <pattern
       id="pattern3224"
       xlink:href="#pattern3217"
       patternTransform="translate(18.523476,76.366917)" />
    <pattern
       id="pattern3217"
       width="7.3207528"
       patternUnits="userSpaceOnUse"
       patternTransform="translate(2.8868 82.83)"
       height="7.3207528">
      <g
         id="g3213"
         transform="matrix(.55908 0 0 .55908 -1.6139 -46.308)">
        <path
           id="path3209"
           style="fill-rule:evenodd;stroke-width:0;fill:#b3b3b3"
           d="m9.3396 86.056a3.2264 3.2264 0 1 1 -6.4528 0 3.2264 3.2264 0 1 1 6.4528 0z" />
        <path
           id="path3211"
           style="fill-rule:evenodd;stroke-width:0;fill:#b3b3b3"
           d="m9.3396 86.056a3.2264 3.2264 0 1 1 -6.4528 0 3.2264 3.2264 0 1 1 6.4528 0z"
           transform="translate(6.6415 6.6415)" />
      </g>
    </pattern>
    <filter
       style="color-interpolation-filters:sRGB"
       id="filter87882"
       x="0"
       y="0"
       width="1"
       height="1">
      <feColorMatrix
         values="1 0 0 0 0 1 0 0 0 0 1 0 0 0 0 0 0 0 0 1 "
         type="matrix"
         result="r"
         in="SourceGraphic"
         id="feColorMatrix87854" />
      <feColorMatrix
         values="0 1 0 0 0 0 1 0 0 0 0 1 0 0 0 0 0 0 0 1 "
         type="matrix"
         result="g"
         in="SourceGraphic"
         id="feColorMatrix87856" />
      <feColorMatrix
         values="0 0 1 0 0 0 0 1 0 0 0 0 1 0 0 0 0 0 0 1 "
         type="matrix"
         result="b"
         in="SourceGraphic"
         id="feColorMatrix87858" />
      <feBlend
         result="minrg"
         in="r"
         mode="darken"
         in2="g"
         id="feBlend87860" />
      <feBlend
         result="p"
         in="minrg"
         mode="darken"
         in2="b"
         id="feBlend87862" />
      <feBlend
         result="maxrg"
         in="r"
         mode="lighten"
         in2="g"
         id="feBlend87864" />
      <feBlend
         result="q"
         in="maxrg"
         mode="lighten"
         in2="b"
         id="feBlend87866" />
      <feComponentTransfer
         result="q2"
         in="q"
         id="feComponentTransfer87870">
        <feFuncR
           slope="0"
           type="linear"
           id="feFuncR87868" />
      </feComponentTransfer>
      <feBlend
         result="pq"
         in="p"
         mode="lighten"
         in2="q2"
         id="feBlend87872" />
      <feColorMatrix
         values="-1 1 0 0 0 -1 1 0 0 0 -1 1 0 0 0 0 0 0 0 1 "
         type="matrix"
         result="qminp"
         in="pq"
         id="feColorMatrix87874" />
      <feComposite
         k3="1"
         operator="arithmetic"
         result="qminpc"
         in="qminp"
         in2="qminp"
         id="feComposite87876"
         k1="0"
         k2="0"
         k4="0" />
      <feBlend
         result="result2"
         in2="SourceGraphic"
         mode="screen"
         id="feBlend87878" />
      <feComposite
         operator="in"
         in="result2"
         in2="SourceGraphic"
         result="fbSourceGraphic"
         id="feComposite87880" />
      <feColorMatrix
         result="fbSourceGraphicAlpha"
         in="fbSourceGraphic"
         values="0 0 0 -1 0 0 0 0 -1 0 0 0 0 -1 0 0 0 0 1 0"
         id="feColorMatrix87903" />
      <feColorMatrix
         id="feColorMatrix87905"
         values="1 0 0 0 0 1 0 0 0 0 1 0 0 0 0 0 0 0 0 1 "
         type="matrix"
         result="r"
         in="fbSourceGraphic" />
      <feColorMatrix
         id="feColorMatrix87907"
         values="0 1 0 0 0 0 1 0 0 0 0 1 0 0 0 0 0 0 0 1 "
         type="matrix"
         result="g"
         in="fbSourceGraphic" />
      <feColorMatrix
         id="feColorMatrix87909"
         values="0 0 1 0 0 0 0 1 0 0 0 0 1 0 0 0 0 0 0 1 "
         type="matrix"
         result="b"
         in="fbSourceGraphic" />
      <feBlend
         in2="g"
         id="feBlend87911"
         result="minrg"
         in="r"
         mode="darken" />
      <feBlend
         in2="b"
         id="feBlend87913"
         result="p"
         in="minrg"
         mode="darken" />
      <feBlend
         in2="g"
         id="feBlend87915"
         result="maxrg"
         in="r"
         mode="lighten" />
      <feBlend
         in2="b"
         id="feBlend87917"
         result="q"
         in="maxrg"
         mode="lighten" />
      <feComponentTransfer
         id="feComponentTransfer87919"
         result="q2"
         in="q">
        <feFuncR
           id="feFuncR87921"
           slope="0"
           type="linear" />
      </feComponentTransfer>
      <feBlend
         in2="q2"
         id="feBlend87923"
         result="pq"
         in="p"
         mode="lighten" />
      <feColorMatrix
         id="feColorMatrix87925"
         values="-1 1 0 0 0 -1 1 0 0 0 -1 1 0 0 0 0 0 0 0 1 "
         type="matrix"
         result="qminp"
         in="pq" />
      <feComposite
         in2="qminp"
         id="feComposite87927"
         k3="1"
         operator="arithmetic"
         result="qminpc"
         in="qminp"
         k1="0"
         k2="0"
         k4="0" />
      <feBlend
         in2="fbSourceGraphic"
         id="feBlend87929"
         result="result2"
         mode="screen" />
      <feComposite
         in2="fbSourceGraphic"
         id="feComposite87931"
         operator="in"
         in="result2"
         result="fbSourceGraphic" />
      <feColorMatrix
         result="fbSourceGraphicAlpha"
         in="fbSourceGraphic"
         values="0 0 0 -1 0 0 0 0 -1 0 0 0 0 -1 0 0 0 0 1 0"
         id="feColorMatrix88002" />
      <feColorMatrix
         id="feColorMatrix88004"
         values="1 0 0 0 0 1 0 0 0 0 1 0 0 0 0 0 0 0 0 1 "
         type="matrix"
         result="r"
         in="fbSourceGraphic" />
      <feColorMatrix
         id="feColorMatrix88006"
         values="0 1 0 0 0 0 1 0 0 0 0 1 0 0 0 0 0 0 0 1 "
         type="matrix"
         result="g"
         in="fbSourceGraphic" />
      <feColorMatrix
         id="feColorMatrix88008"
         values="0 0 1 0 0 0 0 1 0 0 0 0 1 0 0 0 0 0 0 1 "
         type="matrix"
         result="b"
         in="fbSourceGraphic" />
      <feBlend
         in2="g"
         id="feBlend88010"
         result="minrg"
         in="r"
         mode="darken" />
      <feBlend
         in2="b"
         id="feBlend88012"
         result="p"
         in="minrg"
         mode="darken" />
      <feBlend
         in2="g"
         id="feBlend88014"
         result="maxrg"
         in="r"
         mode="lighten" />
      <feBlend
         in2="b"
         id="feBlend88016"
         result="q"
         in="maxrg"
         mode="lighten" />
      <feComponentTransfer
         id="feComponentTransfer88018"
         result="q2"
         in="q">
        <feFuncR
           id="feFuncR88020"
           slope="0"
           type="linear" />
      </feComponentTransfer>
      <feBlend
         in2="q2"
         id="feBlend88022"
         result="pq"
         in="p"
         mode="lighten" />
      <feColorMatrix
         id="feColorMatrix88024"
         values="-1 1 0 0 0 -1 1 0 0 0 -1 1 0 0 0 0 0 0 0 1 "
         type="matrix"
         result="qminp"
         in="pq" />
      <feComposite
         in2="qminp"
         id="feComposite88026"
         k3="1"
         operator="arithmetic"
         result="qminpc"
         in="qminp"
         k1="0"
         k2="0"
         k4="0" />
      <feBlend
         in2="fbSourceGraphic"
         id="feBlend88028"
         result="result2"
         mode="screen" />
      <feComposite
         in2="fbSourceGraphic"
         id="feComposite88030"
         operator="in"
         in="result2"
         result="fbSourceGraphic" />
      <feColorMatrix
         result="fbSourceGraphicAlpha"
         in="fbSourceGraphic"
         values="0 0 0 -1 0 0 0 0 -1 0 0 0 0 -1 0 0 0 0 1 0"
         id="feColorMatrix88330" />
      <feColorMatrix
         id="feColorMatrix88332"
         values="0.21 0.72 0.072 10 0 0.21 0.72 0.072 10 0 0.21 0.72 0.072 10 0 0 0 0 1 0 "
         in="fbSourceGraphic"
         result="fbSourceGraphic" />
      <feColorMatrix
         result="fbSourceGraphicAlpha"
         in="fbSourceGraphic"
         values="0 0 0 -1 0 0 0 0 -1 0 0 0 0 -1 0 0 0 0 1 0"
         id="feColorMatrix88352" />
      <feColorMatrix
         id="feColorMatrix88354"
         values="0.21 0.72 0.072 10 0 0.21 0.72 0.072 10 0 0.21 0.72 0.072 10 0 0 0 0 1 0 "
         in="fbSourceGraphic"
         result="fbSourceGraphic" />
      <feColorMatrix
         result="fbSourceGraphicAlpha"
         in="fbSourceGraphic"
         values="0 0 0 -1 0 0 0 0 -1 0 0 0 0 -1 0 0 0 0 1 0"
         id="feColorMatrix88374" />
      <feColorMatrix
         id="feColorMatrix88376"
         values="0.21 0.72 0.072 10 0 0.21 0.72 0.072 10 0 0.21 0.72 0.072 10 0 0 0 0 1 0 "
         in="fbSourceGraphic" />
    </filter>
    <linearGradient
       id="linearGradient5186">
      <stop
         style="stop-color:#ef2008;stop-opacity:1"
         offset="0"
         id="stop5182" />
      <stop
         style="stop-color:#ff6428;stop-opacity:1"
         offset="1"
         id="stop5184" />
    </linearGradient>
    <linearGradient
       xlink:href="#linearGradient5186"
       id="linearGradient4888"
       x1="51.713676"
       y1="99.769508"
       x2="210.40228"
       y2="99.769508"
       gradientUnits="userSpaceOnUse"
       gradientTransform="matrix(0.04093266,0,0,0.04093266,48.101252,18.71441)" />
    <linearGradient
       xlink:href="#linearGradient886"
       id="linearGradient888"
       x1="115.86406"
       y1="186.00212"
       x2="301.39139"
       y2="186.00212"
       gradientUnits="userSpaceOnUse"
       gradientTransform="matrix(0.04093266,0,0,0.04093266,44.881895,17.432954)" />
    <linearGradient
       id="linearGradient886">
      <stop
         style="stop-color:#3771c8;stop-opacity:1"
         offset="0"
         id="stop882" />
      <stop
         style="stop-color:#2ca089;stop-opacity:1"
         offset="1"
         id="stop884" />
    </linearGradient>
    <linearGradient
       xlink:href="#linearGradient5186"
       id="linearGradient62102"
       gradientUnits="userSpaceOnUse"
       gradientTransform="matrix(0.06386735,0,0,0.06386735,44.326388,12.830358)"
       x1="225.77231"
       y1="173.93456"
       x2="1111.1683"
       y2="173.93456" />
    <linearGradient
       xlink:href="#linearGradient5186"
       id="linearGradient62104"
       gradientUnits="userSpaceOnUse"
       gradientTransform="matrix(0.06386735,0,0,0.06386735,44.326388,12.830358)"
       x1="225.77231"
       y1="173.93456"
       x2="1111.1683"
       y2="173.93456" />
    <linearGradient
       xlink:href="#linearGradient5186"
       id="linearGradient62106"
       gradientUnits="userSpaceOnUse"
       gradientTransform="matrix(0.06386735,0,0,0.06386735,44.326388,12.830358)"
       x1="225.77231"
       y1="173.93456"
       x2="1111.1683"
       y2="173.93456" />
    <linearGradient
       xlink:href="#linearGradient5186"
       id="linearGradient62108"
       gradientUnits="userSpaceOnUse"
       gradientTransform="matrix(0.06386735,0,0,0.06386735,44.326388,12.830358)"
       x1="225.77231"
       y1="173.93456"
       x2="1111.1683"
       y2="173.93456" />
    <linearGradient
       xlink:href="#linearGradient5186"
       id="linearGradient62110"
       gradientUnits="userSpaceOnUse"
       gradientTransform="matrix(0.06386735,0,0,0.06386735,44.326388,12.830358)"
       x1="225.77231"
       y1="173.93456"
       x2="1111.1683"
       y2="173.93456" />
    <linearGradient
       xlink:href="#linearGradient5186"
       id="linearGradient62112"
       gradientUnits="userSpaceOnUse"
       gradientTransform="matrix(0.06386735,0,0,0.06386735,44.326388,12.830358)"
       x1="225.77231"
       y1="173.93456"
       x2="1111.1683"
       y2="173.93456" />
    <linearGradient
       xlink:href="#linearGradient5186"
       id="linearGradient62114"
       gradientUnits="userSpaceOnUse"
       gradientTransform="matrix(0.06386735,0,0,0.06386735,44.326388,12.830358)"
       x1="225.77231"
       y1="173.93456"
       x2="1111.1683"
       y2="173.93456" />
    <linearGradient
       xlink:href="#linearGradient5186"
       id="linearGradient62116"
       gradientUnits="userSpaceOnUse"
       gradientTransform="matrix(0.06386735,0,0,0.06386735,44.326388,12.830358)"
       x1="225.77231"
       y1="173.93456"
       x2="1111.1683"
       y2="173.93456" />
    <linearGradient
       xlink:href="#linearGradient5186"
       id="linearGradient62118"
       gradientUnits="userSpaceOnUse"
       gradientTransform="matrix(0.06386735,0,0,0.06386735,44.326388,12.830358)"
       x1="225.77231"
       y1="173.93456"
       x2="1111.1683"
       y2="173.93456" />
    <linearGradient
       xlink:href="#linearGradient5186"
       id="linearGradient62120"
       gradientUnits="userSpaceOnUse"
       gradientTransform="matrix(0.06386735,0,0,0.06386735,44.326388,12.830358)"
       x1="225.77231"
       y1="173.93456"
       x2="1111.1683"
       y2="173.93456" />
    <linearGradient
       xlink:href="#linearGradient5186"
       id="linearGradient62122"
       gradientUnits="userSpaceOnUse"
       gradientTransform="matrix(0.06386735,0,0,0.06386735,44.326388,12.830358)"
       x1="225.77231"
       y1="173.93456"
       x2="1111.1683"
       y2="173.93456" />
  </defs>
  <path
     d="m 81.649324,11.687972 c 0,0.570846 -0.06811,1.092053 -0.204339,1.56362 -0.126495,0.459159 -0.360024,0.856268 -0.700587,1.19133 -0.330834,0.322652 -0.793028,0.57705 -1.386582,0.763195 -0.583825,0.186145 -1.328198,0.279218 -2.233121,0.279218 -0.904926,0 -1.65417,-0.09307 -2.247724,-0.279218 -0.593554,-0.186145 -1.060609,-0.440543 -1.401172,-0.763195 -0.330834,-0.335062 -0.564367,-0.732171 -0.700591,-1.19133 -0.126496,-0.471567 -0.189742,-0.992774 -0.189742,-1.56362 V 5.3404201 c 0,-0.5708454 0.06325,-1.0858473 0.189742,-1.5450053 0.136224,-0.4715679 0.369757,-0.8748826 0.700591,-1.2099441 0.340563,-0.3350614 0.807618,-0.5956647 1.401172,-0.7818099 0.593554,-0.1861452 1.342798,-0.2792178 2.247724,-0.2792178 0.904923,0 1.649296,0.093073 2.233121,0.2792178 0.593554,0.1861452 1.055748,0.4467485 1.386582,0.7818099 0.340563,0.3350615 0.574092,0.7383762 0.700587,1.2099441 0.136225,0.459158 0.204339,0.9741599 0.204339,1.5450053 z m -6.534485,-0.49629 c 0.02223,0.247195 0.843423,1.093253 0.989376,1.266989 0.145957,0.161326 1.671389,-0.09584 2.196832,-0.09584 0.525441,0 0.861136,-0.08066 1.007093,-0.241988 0.145954,-0.173736 1.179621,-1.868056 1.123859,-2.109904 L 79.178643,4.5749836 C 79.125669,4.3452276 78.29838,4.2931796 78.152423,4.1318537 78.006469,3.9581177 77.67077,3.87125 77.14533,3.87125 c -0.52544,0 -0.861142,0.086868 -1.007099,0.2606037 -0.145953,0.1613259 -1.658171,0.00157 -1.637052,0.2364205 z"
     style="font-size:50.419px;line-height:1.25;font-family:Bungee;-inkscape-font-specification:Bungee;fill:#f9f9f9;fill-opacity:1;stroke-width:0.264583"
     id="path91742" />
  <path
     d="m 66.106155,14.742851 -1.615541,0.03058 c -0.184844,0.0035 -0.321105,-0.04964 -0.408677,-0.148916 -0.07784,-0.111687 -0.116763,-0.285422 -0.116763,-0.521206 l 0.385835,-9.9978624 h -2.145551 c -0.18488,0 -0.321105,-0.049639 -0.408677,-0.1489164 -0.07784,-0.1116873 -0.05388,-0.2939638 -0.116763,-0.5212068 L 61.294183,2.0410991 c -0.06289,-0.2272429 0.03892,-0.4033147 0.116763,-0.5025921 0.08757,-0.1116872 0.2238,-0.1675307 0.408677,-0.1675307 h 7.70647 c 0.184877,0 0.316237,0.055844 0.39408,0.1675307 0.08757,0.099277 0.190971,0.2744683 0.13136,0.5025921 l -0.360492,1.3795377 c -0.05961,0.2281239 -0.04379,0.4095196 -0.13136,0.5212068 C 69.481834,4.0411213 69.350474,4.09076 69.1656,4.09076 h -2.145554 l -0.388451,9.981968 c -0.0092,0.235606 -0.04378,0.40952 -0.13136,0.521207 -0.07784,0.09928 -0.209232,0.145417 -0.39408,0.148916 z"
     style="font-size:50.419px;line-height:1.25;font-family:Bungee;-inkscape-font-specification:Bungee;fill:#ffffff;fill-opacity:1;stroke-width:0.264583"
     id="path91745" />
  <path
     d="m 51.150051,14.819984 -1.650515,0.328824 c -0.181313,0.03612 -0.321101,-0.04964 -0.408674,-0.148916 -0.07784,-0.111687 -0.116766,-0.285423 -0.116766,-0.521207 V 2.4164744 c 0,-0.235784 0.03892,-0.4033147 0.116766,-0.5025921 0.08757,-0.1116872 0.225324,-0.1912411 0.408674,-0.1675307 l 1.911529,0.247196 c 0.183353,0.023711 0.31624,0.055844 0.394083,0.1675306 0.08757,0.099277 0.13136,0.2668082 0.13136,0.5025922 V 6.9450105 L 53.69851,7.1744981 54.930621,2.4582162 C 54.998731,2.234842 55.091172,2.0797209 55.207939,1.9928532 55.324702,1.8935762 55.475827,1.8545849 55.6604,1.843937 l 1.69156,-0.097585 c 0.165144,-0.00953 0.277317,0.055844 0.335702,0.1675307 0.05838,0.099277 0.05352,0.2481936 -0.01458,0.4467485 l -1.488758,4.3371839 c 0.544902,0.037229 0.977905,0.2854227 1.299007,0.7445809 0.330834,0.4467486 0.496252,1.0424133 0.496252,1.7869942 v 5.2492948 c 0,0.235784 -0.04379,0.40952 -0.13136,0.521207 -0.07784,0.09928 -0.220913,0.213666 -0.394083,0.148916 l -1.338701,-0.500553 c -0.173167,-0.06475 -0.321102,-0.04964 -0.408677,-0.148916 -0.07784,-0.111688 -0.116767,-0.285423 -0.116767,-0.521207 V 10.3483 c 0,-0.198555 -0.03892,-0.353676 -0.116763,-0.4653629 C 55.395392,9.7712498 55.276256,9.6883427 55.12294,9.7154062 l -3.447435,0.1717289 v 4.2627259 c 0,0.235784 -0.04378,0.409519 -0.13136,0.521207 -0.07784,0.09928 -0.209203,0.148916 -0.394083,0.148916 z"
     style="font-size:50.419px;line-height:1.25;font-family:Bungee;-inkscape-font-specification:Bungee;fill:#ffffff;fill-opacity:1;stroke-width:0.264583"
     id="path91748" />
  <path
     d="m 45.09154,15.432064 h -3.561324 c -1.216299,0 -2.121226,-0.328587 -2.71478,-0.985761 -0.583821,-0.657175 -0.875732,-1.669223 -0.875732,-3.036146 V 5.278721 c 0,-1.3669227 0.291911,-2.3789711 0.875732,-3.0361454 0.593554,-0.6703178 1.498481,-1.0054767 2.71478,-1.0054767 h 3.561324 c 0.184877,0 0.316237,0.059146 0.39408,0.1774371 0.08757,0.1051478 0.194325,0.2906527 0.13136,0.5323112 l -0.377757,1.4498573 c -0.06296,0.2416584 -0.04379,0.433735 -0.13136,0.5520267 -0.07784,0.1051478 -0.209203,0.157722 -0.39408,0.157722 h -2.933715 c -0.30164,0 -0.52544,0.085433 -0.671394,0.256298 -0.145957,0.1577216 -0.212766,0.400934 -0.218935,0.7294635 l -0.116002,6.1773933 c -0.0062,0.328529 0.07298,0.571741 0.218936,0.729463 0.145954,0.144578 0.36975,0.216867 0.671394,0.216867 h 2.933714 c 0.184874,0 0.316234,0.05915 0.394081,0.177437 0.08757,0.105148 0.06518,0.291513 0.13136,0.532311 l 0.493758,1.79663 c 0.06618,0.240798 -0.04379,0.433735 -0.13136,0.552026 -0.07784,0.105148 -0.209203,0.157722 -0.39408,0.157722 z"
     style="font-size:50.419px;line-height:1.25;font-family:Bungee;-inkscape-font-specification:Bungee;fill:#ffffff;fill-opacity:1;stroke-width:0.264583"
     id="path91751" />
  <path
     d="m 28.211039,15.428643 c -0.184877,0 -0.321103,-0.05207 -0.408678,-0.156197 -0.07784,-0.117147 -0.08674,-0.301206 -0.116764,-0.546687 L 27.46324,12.907986 c -0.03003,-0.245481 0.03892,-0.423031 0.116764,-0.527162 0.08758,-0.117147 0.223802,-0.175721 0.408679,-0.175721 h 1.444962 l 0.227322,-7.8996966 h -1.444963 c -0.184877,0 -0.321103,-0.052065 -0.408679,-0.1561965 -0.07784,-0.1171473 -0.11596,-0.2993778 -0.116763,-0.5466871 l -0.005,-1.5286633 c -8.18e-4,-0.2473094 0.03892,-0.4230316 0.116764,-0.5271625 0.08757,-0.1171471 0.223801,-0.1757207 0.408678,-0.1757207 h 6.21772 c 0.184877,0 0.316237,0.058574 0.39408,0.1757207 0.08757,0.1041309 0.20188,0.2901192 0.13136,0.5271625 l -0.494016,1.6605679 c -0.07052,0.2370434 -0.04378,0.42954 -0.13136,0.5466872 -0.07784,0.1041311 -0.2092,0.1561965 -0.39408,0.1561965 l -1.410805,-0.8338055 0.266695,8.6015974 h 1.415771 c 0.184877,0 0.316237,0.05857 0.39408,0.175721 0.08757,0.104131 0.101333,0.281681 0.13136,0.527162 l 0.222355,1.817773 c 0.03001,0.245481 -0.04379,0.42954 -0.13136,0.546687 -0.07784,0.104131 -0.209203,0.156197 -0.39408,0.156197 z"
     style="font-size:50.419px;line-height:1.25;font-family:Bungee;-inkscape-font-specification:Bungee;fill:#ffffff;fill-opacity:1;stroke-width:0.264583"
     id="path91754" />
  <path
     d="M 6.740437,15.454733 H 1.6828456 c -0.2027305,0 -0.3521108,-0.05276 -0.448141,-0.158287 -0.08536,-0.118715 -0.1280403,-0.303383 -0.1280403,-0.554004 v -2.314948 c 0,-0.250621 0.04268,-0.139039 0.1280403,-0.244564 0.09603,-0.118715 0.2459293,-0.192567 0.448141,-0.178073 l 4.5034005,0.322793 c 0.1383552,0.0099 0.2400756,-0.05276 0.3040955,-0.158287 0.07469,-0.118715 0.5495646,-1.358743 0.5495646,-1.517029 0,-0.224241 -0.037345,-0.389123 -0.1120355,-0.494648 C 6.8638508,10.052162 6.7624855,9.992804 6.6237753,9.9796134 L 3.9358239,9.5345121 C 3.1889215,9.4026065 2.2376868,9.6179001 1.7788758,9.1430389 1.3307348,8.6681781 1.1066643,7.8767432 1.1066643,6.7687339 V 4.6912167 c 0,-1.1211995 0.2934256,-1.9785873 0.8802769,-2.5721635 C 2.5737925,1.5122864 3.3847147,1.208903 4.419707,1.208903 h 4.4814096 c 0.2027304,0 0.3467756,0.059358 0.4321356,0.1780728 0.09603,0.1055247 0.1440455,0.2835976 0.1440455,0.5342187 v 2.3545193 c 0,0.2506211 -0.2025973,-0.02207 -0.2986277,0.096644 -0.08536,0.1055248 -0.2655587,0.077734 -0.4682868,0.076825 L 4.9484657,4.4323337 C 4.8097565,4.4317126 4.3438725,4.4190117 4.2691826,4.537728 4.1944923,4.6432528 3.8248075,5.4685943 3.8248075,5.6400718 c 0,0.1714774 0.8770979,0.8258756 0.9517881,0.944591 0.07469,0.1187154 0.1813904,0.1846681 0.3201009,0.1978587 L 7.366467,7.1799064 C 8.1133687,7.3118123 8.7162249,7.6151958 9.1750356,8.0900567 9.633847,8.5649179 10.053479,8.7868931 10.053479,9.8949024 v 2.0775166 c 0,1.1212 -0.2987606,1.985183 -0.8962821,2.59195 -0.5868512,0.593576 -1.3924378,0.890364 -2.4167599,0.890364 z"
     style="font-size:50.419px;line-height:1.25;font-family:Bungee;-inkscape-font-specification:Bungee;fill:#ffffff;fill-opacity:1;stroke-width:0.264583"
     id="path91757" />
  <path
     d="M 6.9004683,15.528482 H 1.4183007 q -0.329624,0 -0.48576166,-0.160378 -0.13878903,-0.180425 -0.13878903,-0.561323 v -2.345529 q 0,-0.380898 0.13878903,-0.541276 0.15613766,-0.180425 0.48576166,-0.180425 h 4.6667818 q 0.2255325,0 0.329624,-0.160378 0.1214406,-0.180425 0.1214406,-0.420993 0,-0.340803 -0.1214406,-0.501181 Q 6.310615,10.496621 6.0850825,10.476574 L 3.4827883,10.055582 Q 2.2683836,9.8551092 1.5223925,9.1334082 0.79375001,8.4117068 0.79375001,6.7277374 V 4.6227758 q 0,-1.7040168 0.95417469,-2.6061433 0.9541746,-0.9221737 2.6369924,-0.9221737 h 4.8576166 q 0.3296237,0 0.468413,0.1804253 0.1561377,0.160378 0.1561377,0.5412759 v 2.3856233 q 0,0.380898 -0.1561377,0.5613232 -0.1387893,0.1603782 -0.468413,0.1603782 H 5.2003029 q -0.2255325,0 -0.3469728,0.1804253 -0.1214402,0.1603778 -0.1214402,0.4209922 0,0.2606143 0.1214402,0.4410396 0.1214403,0.1804252 0.3469728,0.2004727 l 2.5849456,0.4009451 q 1.2144043,0.2004723 1.9603953,0.9221737 0.7459912,0.7217011 0.7459912,2.4056705 v 2.1049612 q 0,1.704017 -0.9715234,2.626191 -0.9541747,0.902126 -2.6196433,0.902126 z M 8.3057073,2.8987117 H 4.4543116 q -0.7980369,0 -1.283799,0.5212287 Q 2.6847509,3.9211217 2.6847509,4.723012 v 1.6438749 q 0,0.8219375 0.2775779,1.1426935 0.294927,0.3007089 0.7459917,0.4009451 l 3.6605608,0.8620321 q 0.4857617,0.1202833 0.76334,0.4811339 0.2949266,0.3408034 0.2949266,1.2830235 v 1.162741 q 0,0.801891 -0.4857617,1.323119 -0.468413,0.501182 -1.2664501,0.501182 H 2.3551268 v 0.200472 h 4.3198093 q 0.8847802,0 1.405239,-0.561323 0.5204592,-0.581371 0.5204592,-1.46345 v -1.162741 q 0,-1.0424563 -0.3469728,-1.4434014 Q 7.9240375,8.6923686 7.4035787,8.5720849 L 3.7430179,7.7100531 Q 3.343999,7.6298641 3.1011181,7.3492023 2.8582373,7.0685408 2.8582373,6.3668869 V 4.723012 q 0,-0.7016541 0.4337159,-1.1627408 0.433716,-0.4610869 1.1623584,-0.4610869 h 3.8513957 z"
     style="font-size:57.045px;line-height:1.25;fill:#5f8dd3;stroke:none;stroke-width:0;stroke-miterlimit:4;stroke-dasharray:none"
     id="path91760" />
  <path
     d="m 27.305288,15.528482 q -0.329624,0 -0.485762,-0.160378 -0.138789,-0.180425 -0.138789,-0.561323 v -2.385623 q 0,-0.380898 0.138789,-0.541276 0.156138,-0.180426 0.485762,-0.180426 h 1.717513 V 4.9635793 h -1.717513 q -0.329624,0 -0.485762,-0.1603782 Q 26.680737,4.6227758 26.680737,4.2418779 V 1.81616 q 0,-0.3808979 0.138789,-0.5412759 0.156138,-0.1804253 0.485762,-0.1804253 h 7.390519 q 0.329621,0 0.468412,0.1804253 0.156137,0.160378 0.156137,0.5412759 v 2.4257179 q 0,0.3808979 -0.156137,0.5613232 -0.138791,0.1603782 -0.468412,0.1603782 h -1.68282 v 6.7358767 h 1.68282 q 0.329621,0 0.468412,0.180426 0.156137,0.160378 0.156137,0.541276 v 2.385623 q 0,0.380898 -0.156137,0.561323 -0.138791,0.160378 -0.468412,0.160378 z m 6.453691,-1.804253 V 13.523757 H 31.104637 V 3.0991843 h 2.654342 V 2.8987117 h -5.516864 v 0.2004726 h 2.689036 V 13.523757 h -2.689036 v 0.200472 z"
     style="font-size:57.045px;line-height:1.25;font-family:'Bungee Inline';-inkscape-font-specification:'Bungee Inline';fill:#fb521f;stroke:none;stroke-width:0;stroke-miterlimit:4;stroke-dasharray:none"
     id="path91763" />
  <path
     d="M 45.764228,15.528482 H 41.53116 q -2.168579,0 -3.226845,-1.002363 Q 37.2634,13.523757 37.2634,11.438842 V 5.2041462 q 0,-2.0849147 1.040915,-3.0872774 1.058266,-1.02241 3.226845,-1.02241 h 4.233068 q 0.329621,0 0.468412,0.1804253 0.156138,0.160378 0.156138,0.5412759 v 2.4257179 q 0,0.3808979 -0.156138,0.5613232 -0.138791,0.1603782 -0.468412,0.1603782 h -3.487077 q -0.537808,0 -0.798036,0.260614 -0.260229,0.2405672 -0.260229,0.7417485 v 4.7712462 q 0,0.501181 0.260229,0.741749 0.260228,0.220519 0.798036,0.220519 h 3.487077 q 0.329621,0 0.468412,0.180426 0.156138,0.160378 0.156138,0.541276 v 2.385623 q 0,0.380898 -0.156138,0.561323 -0.138791,0.160378 -0.468412,0.160378 z M 44.810051,13.523757 H 41.91283 q -1.561376,0 -2.081834,-0.541276 -0.520458,-0.541276 -0.520458,-1.844348 V 5.5249022 q 0,-1.3231189 0.537804,-1.8643948 0.537811,-0.5613231 2.064488,-0.5613231 h 2.897221 V 2.8987117 H 41.91283 q -1.665468,0 -2.220625,0.6014177 -0.555154,0.6014177 -0.555154,2.0247728 v 5.6132308 q 0,1.383261 0.537804,1.984679 0.555158,0.601417 2.237975,0.601417 h 2.897221 z"
     style="font-size:57.045px;line-height:1.25;fill:#5f8dd3;stroke-width:1.393"
     id="path91766" />
  <path
     d="M 50.41363,13.724229 V 8.4317542 h 4.66678 q 0.954177,0 1.439939,0.4009451 0.485761,0.4009451 0.485761,1.3632127 v 3.528317 h 0.173488 v -3.528317 q 0,-1.0424567 -0.520462,-1.5035434 Q 56.138679,8.2312815 55.08041,8.2312815 H 54.369119 L 56.364208,2.8987117 H 56.173375 L 54.178282,8.2312815 H 50.41363 V 2.8987117 H 50.240143 V 13.724229 Z m 1.249102,1.804253 h -2.689041 q -0.329621,0 -0.485762,-0.160378 -0.138788,-0.180425 -0.138788,-0.561323 V 1.81616 q 0,-0.3808979 0.138788,-0.5412759 0.156141,-0.1804253 0.485762,-0.1804253 h 2.689041 q 0.329621,0 0.468412,0.1804253 0.156137,0.160378 0.156137,0.5412759 v 4.6108688 h 0.693948 l 1.786906,-4.6710106 q 0.121442,-0.3608506 0.329625,-0.5011814 0.208183,-0.160378 0.537807,-0.160378 h 2.671688 q 0.294928,0 0.39902,0.1804253 0.104091,0.160378 -0.01733,0.4811341 l -1.76956,4.6710106 q 0.971524,0.060142 1.544027,0.8018902 0.589854,0.7217011 0.589854,1.9245363 v 5.6533257 q 0,0.380898 -0.156138,0.561323 -0.138791,0.160378 -0.468412,0.160378 h -2.671688 q -0.329627,0 -0.485761,-0.160378 -0.138791,-0.180425 -0.138791,-0.561323 v -3.909215 q 0,-0.320756 -0.138788,-0.501181 -0.138788,-0.180426 -0.416363,-0.180426 h -2.290021 v 4.590822 q 0,0.380898 -0.156141,0.561323 -0.138787,0.160378 -0.468409,0.160378 z"
     style="font-size:57.045px;line-height:1.25;font-family:'Bungee Inline';-inkscape-font-specification:'Bungee Inline';fill:#fb521f;stroke:none;stroke-width:0;stroke-miterlimit:4;stroke-dasharray:none"
     id="path91769" />
  <path
     d="m 66.755985,15.528482 h -2.810478 q -0.329621,0 -0.485762,-0.160378 -0.138788,-0.180425 -0.138788,-0.561323 V 4.9635793 h -2.550246 q -0.329628,0 -0.485762,-0.1603782 Q 60.146158,4.6227758 60.146158,4.2418779 V 1.81616 q 0,-0.3808979 0.138791,-0.5412759 0.156134,-0.1804253 0.485762,-0.1804253 h 9.160077 q 0.329621,0 0.468412,0.1804253 0.156137,0.160378 0.156137,0.5412759 v 2.4257179 q 0,0.3808979 -0.156137,0.5613232 -0.138791,0.1603782 -0.468412,0.1603782 h -2.55025 v 9.8432017 q 0,0.380898 -0.156137,0.561323 -0.138791,0.160378 -0.468416,0.160378 z m -1.491981,-1.804253 h 0.173487 V 3.0991843 h 3.55647 V 2.8987117 h -7.286426 v 0.2004726 h 3.556469 z"
     style="font-size:57.045px;line-height:1.25;font-family:'Bungee Inline';-inkscape-font-specification:'Bungee Inline';fill:#fb521f;stroke-width:1.393"
     id="path91772" />
  <path
     d="m 82.734024,11.739551 q 0,0.922173 -0.242879,1.683969 -0.225536,0.741749 -0.832736,1.283024 -0.589853,0.521229 -1.648122,0.821938 -1.040915,0.300709 -2.654338,0.300709 -1.613422,0 -2.671688,-0.300709 Q 73.625993,15.227773 73.018793,14.706544 72.42894,14.165269 72.186057,13.42352 71.960524,12.661724 71.960524,11.739551 V 4.9034373 q 0,-0.9221739 0.225533,-1.6639222 0.242883,-0.7617957 0.832736,-1.3030716 0.6072,-0.5412759 1.665468,-0.8419847 1.058266,-0.30070879 2.671688,-0.30070879 1.613423,0 2.654338,0.30070879 1.058269,0.3007088 1.648122,0.8419847 0.6072,0.5412759 0.832736,1.3030716 0.242879,0.7417483 0.242879,1.6639222 z M 80.843023,11.278464 V 5.3645243 q 0,-1.2028355 -0.745991,-1.9445839 -0.74599,-0.7617957 -2.775779,-0.7617957 -2.029792,0 -2.758436,0.7617957 -0.728641,0.7417484 -0.728641,1.9445839 v 5.9139397 q 0,1.202835 0.728641,1.964631 0.728644,0.741748 2.758436,0.741748 2.029789,0 2.775779,-0.741748 0.745991,-0.761796 0.745991,-1.964631 z m -6.83536,0 V 5.3645243 q 0,-1.1226464 0.693945,-1.8042531 0.693944,-0.701654 2.619645,-0.701654 1.925697,0 2.636992,0.701654 0.711291,0.6816067 0.711291,1.8042531 v 5.9139397 q 0,1.122646 -0.711291,1.8243 -0.711295,0.681607 -2.636992,0.681607 -1.925701,0 -2.619645,-0.681607 -0.693945,-0.701654 -0.693945,-1.8243 z m 1.891001,-0.260614 q 0,0.400945 0.260229,0.681606 0.260229,0.260614 1.197056,0.260614 0.936827,0 1.197053,-0.260614 0.260232,-0.280661 0.260232,-0.681606 V 5.6251383 q 0,-0.3808976 -0.260232,-0.6415119 -0.260226,-0.2806615 -1.197053,-0.2806615 -0.936827,0 -1.197056,0.2806615 -0.260229,0.2606143 -0.260229,0.6415119 z"
     style="font-size:57.045px;line-height:1.25;font-family:'Bungee Inline';-inkscape-font-specification:'Bungee Inline';fill:#fb521f;stroke-width:1.393"
     id="path91775" />
  <g
     id="path141484"
     transform="matrix(0.30412185,0,0,0.35142878,-2.5267202,-3.4786451)"
     style="font-size:57.045px;fill:#014461;stroke:none;stroke-width:0;stroke-miterlimit:4;stroke-dasharray:none">
    <path
       style="color:#000000;fill:#5f8dd3;stroke:none;stroke-width:0;stroke-miterlimit:4;stroke-dasharray:none"
       d="m 158.78815,54.085289 h -13.91898 q -7.13063,0 -10.61037,-2.85225 -3.4227,-2.85225 -3.4227,-8.78493 V 24.707115 q 0,-5.93268 3.4227,-8.78493 3.47974,-2.909295 10.61037,-2.909295 h 13.91898 q 1.08385,0 1.54021,0.513405 0.51341,0.45636 0.51341,1.540215 v 6.902445 q 0,1.083855 -0.51341,1.59726 -0.45636,0.45636 -1.54021,0.45636 H 147.3221 q -1.76839,0 -2.62407,0.741585 -0.85567,0.68454 -0.85567,2.110665 v 13.576709 q 0,1.426125 0.85567,2.110665 0.85568,0.627495 2.62407,0.627495 h 11.46605 q 1.08385,0 1.54021,0.513405 0.51341,0.45636 0.51341,1.540215 v 6.788355 q 0,1.083855 -0.51341,1.59726 -0.45636,0.45636 -1.54021,0.45636 z m -3.13748,-5.7045 h -9.52651 q -5.13405,0 -6.8454,-1.540215 -1.71135,-1.540215 -1.71135,-5.24814 V 25.619835 q 0,-3.76497 1.76839,-5.305185 1.7684,-1.59726 6.78836,-1.59726 h 9.52651 v -0.57045 h -9.52651 q -5.47632,0 -7.30176,1.71135 -1.82544,1.71135 -1.82544,5.761545 v 15.972599 q 0,3.936105 1.76839,5.647455 1.82544,1.71135 7.35881,1.71135 h 9.52651 z"
       id="path91778" />
  </g>
  <path
     d="m 98.723865,14.819984 -1.650515,0.328824 c -0.181314,0.03612 -0.321102,-0.04964 -0.408674,-0.148916 -0.07784,-0.111687 -0.116766,-0.285423 -0.116766,-0.521207 V 2.4164744 c 0,-0.235784 0.03892,-0.4033147 0.116766,-0.5025921 0.08757,-0.1116872 0.225323,-0.1912411 0.408674,-0.1675307 l 1.911528,0.247196 c 0.183354,0.023711 0.31624,0.055844 0.394083,0.1675306 0.08757,0.099277 0.13136,0.2668082 0.13136,0.5025922 v 4.2813401 l 1.761999,0.2294876 1.23211,-4.7162819 c 0.0681,-0.2233742 0.16056,-0.3784953 0.27732,-0.465363 0.11676,-0.099277 0.26789,-0.1382683 0.45246,-0.1489162 l 1.69156,-0.097585 c 0.16515,-0.00953 0.27732,0.055844 0.33571,0.1675307 0.0584,0.099277 0.0535,0.2481936 -0.0146,0.4467485 l -1.48875,4.3371839 c 0.5449,0.037229 0.9779,0.2854227 1.299,0.7445809 0.33084,0.4467486 0.49626,1.0424133 0.49626,1.7869942 v 5.2492948 c 0,0.235784 -0.0438,0.40952 -0.13136,0.521207 -0.0779,0.09928 -0.22092,0.213666 -0.39409,0.148916 l -1.3387,-0.500553 c -0.17317,-0.06475 -0.3211,-0.04964 -0.40868,-0.148916 -0.0778,-0.111688 -0.11676,-0.285423 -0.11676,-0.521207 V 10.3483 c 0,-0.198555 -0.0389,-0.353676 -0.11677,-0.4653629 -0.0778,-0.1116873 -0.19697,-0.1945944 -0.35029,-0.1675309 l -3.447432,0.1717289 v 4.2627259 c 0,0.235784 -0.04378,0.409519 -0.13136,0.521207 -0.07784,0.09928 -0.209203,0.148916 -0.394083,0.148916 z"
     style="font-size:50.419px;line-height:1.25;font-family:Bungee;-inkscape-font-specification:Bungee;fill:#ffffff;fill-opacity:1;stroke-width:0.264583"
     id="path91781" />
  <path
     d="m 92.665353,15.432064 h -3.561324 c -1.216299,0 -2.121225,-0.328587 -2.714779,-0.985761 -0.583822,-0.657175 -0.875733,-1.669223 -0.875733,-3.036146 V 5.278721 c 0,-1.3669227 0.291911,-2.3789711 0.875733,-3.0361454 0.593554,-0.6703178 1.49848,-1.0054767 2.714779,-1.0054767 h 3.561324 c 0.184877,0 0.316237,0.059146 0.39408,0.1774371 0.08757,0.1051478 0.194325,0.2906527 0.13136,0.5323112 l -0.377757,1.4498573 c -0.06296,0.2416584 -0.04379,0.433735 -0.13136,0.5520267 -0.07784,0.1051478 -0.209203,0.157722 -0.39408,0.157722 h -2.933715 c -0.30164,0 -0.52544,0.085433 -0.671393,0.256298 -0.145958,0.1577216 -0.212767,0.400934 -0.218936,0.7294635 l -0.116001,6.1773933 c -0.0062,0.328529 0.07298,0.571741 0.218935,0.729463 0.145954,0.144578 0.369751,0.216867 0.671394,0.216867 h 2.933715 c 0.184874,0 0.316234,0.05915 0.39408,0.177437 0.08757,0.105148 0.06518,0.291513 0.13136,0.532311 l 0.493758,1.79663 c 0.06618,0.240798 -0.04379,0.433735 -0.13136,0.552026 -0.07784,0.105148 -0.209203,0.157722 -0.39408,0.157722 z"
     style="font-size:50.419px;line-height:1.25;font-family:Bungee;-inkscape-font-specification:Bungee;fill:#ffffff;fill-opacity:1;stroke-width:0.264583"
     id="path91784" />
  <path
     d="m 93.338042,15.528482 h -4.233068 q -2.16858,0 -3.226845,-1.002363 -1.040916,-1.002362 -1.040916,-3.087277 V 5.2041462 q 0,-2.0849147 1.040916,-3.0872774 1.058265,-1.02241 3.226845,-1.02241 h 4.233068 q 0.329621,0 0.468412,0.1804253 0.156137,0.160378 0.156137,0.5412759 v 2.4257179 q 0,0.3808979 -0.156137,0.5613232 -0.138791,0.1603782 -0.468412,0.1603782 h -3.487078 q -0.537807,0 -0.798036,0.260614 -0.260229,0.2405672 -0.260229,0.7417485 v 4.7712462 q 0,0.501181 0.260229,0.741749 0.260229,0.220519 0.798036,0.220519 h 3.487078 q 0.329621,0 0.468412,0.180426 0.156137,0.160378 0.156137,0.541276 v 2.385623 q 0,0.380898 -0.156137,0.561323 -0.138791,0.160378 -0.468412,0.160378 z m -0.954177,-2.004725 h -2.897221 q -1.561377,0 -2.081835,-0.541276 -0.520457,-0.541276 -0.520457,-1.844348 V 5.5249022 q 0,-1.3231189 0.537804,-1.8643948 0.537811,-0.5613231 2.064488,-0.5613231 h 2.897221 V 2.8987117 h -2.897221 q -1.665468,0 -2.220626,0.6014177 -0.555154,0.6014177 -0.555154,2.0247728 v 5.6132308 q 0,1.383261 0.537805,1.984679 0.555157,0.601417 2.237975,0.601417 h 2.897221 z"
     style="font-size:57.045px;line-height:1.25;fill:#5f8dd3;stroke-width:1.393"
     id="path91787" />
  <path
     d="M 97.987443,13.724229 V 8.4317542 h 4.666777 q 0.95418,0 1.43994,0.4009451 0.48576,0.4009451 0.48576,1.3632127 v 3.528317 h 0.17349 v -3.528317 q 0,-1.0424567 -0.52046,-1.5035434 -0.52046,-0.4610871 -1.57873,-0.4610871 h -0.71129 l 1.99509,-5.3325698 h -0.19083 L 101.7521,8.2312815 H 97.987443 V 2.8987117 H 97.813956 V 13.724229 Z m 1.249102,1.804253 h -2.689041 q -0.329621,0 -0.485762,-0.160378 -0.138787,-0.180425 -0.138787,-0.561323 V 1.81616 q 0,-0.3808979 0.138787,-0.5412759 0.156141,-0.1804253 0.485762,-0.1804253 h 2.689041 q 0.329621,0 0.468412,0.1804253 0.156137,0.160378 0.156137,0.5412759 v 4.6108688 h 0.693946 l 1.78691,-4.6710106 q 0.12144,-0.3608506 0.32962,-0.5011814 0.20819,-0.160378 0.53781,-0.160378 h 2.67169 q 0.29493,0 0.39902,0.1804253 0.10409,0.160378 -0.0173,0.4811341 l -1.76956,4.6710106 q 0.97153,0.060142 1.54403,0.8018902 0.58985,0.7217011 0.58985,1.9245363 v 5.6533257 q 0,0.380898 -0.15614,0.561323 -0.13879,0.160378 -0.46841,0.160378 h -2.67169 q -0.32962,0 -0.48576,-0.160378 -0.13879,-0.180425 -0.13879,-0.561323 v -3.909215 q 0,-0.320756 -0.13879,-0.501181 -0.13879,-0.180426 -0.41636,-0.180426 h -2.290023 v 4.590822 q 0,0.380898 -0.15614,0.561323 -0.138788,0.160378 -0.468409,0.160378 z"
     style="font-size:57.045px;line-height:1.25;font-family:'Bungee Inline';-inkscape-font-specification:'Bungee Inline';fill:#fb521f;stroke:none;stroke-width:0;stroke-miterlimit:4;stroke-dasharray:none"
     id="path91790" />
  <g
     id="path141484-4"
     transform="matrix(0.30412185,0,0,0.35142878,45.047072,-3.4786451)"
     style="font-size:57.045px;fill:#014461;stroke:none;stroke-width:0;stroke-miterlimit:4;stroke-dasharray:none">
    <path
       style="color:#000000;fill:#5f8dd3;stroke:none;stroke-width:0;stroke-miterlimit:4;stroke-dasharray:none"
       d="m 158.78815,54.085289 h -13.91898 q -7.13063,0 -10.61037,-2.85225 -3.4227,-2.85225 -3.4227,-8.78493 V 24.707115 q 0,-5.93268 3.4227,-8.78493 3.47974,-2.909295 10.61037,-2.909295 h 13.91898 q 1.08385,0 1.54021,0.513405 0.51341,0.45636 0.51341,1.540215 v 6.902445 q 0,1.083855 -0.51341,1.59726 -0.45636,0.45636 -1.54021,0.45636 H 147.3221 q -1.76839,0 -2.62407,0.741585 -0.85567,0.68454 -0.85567,2.110665 v 13.576709 q 0,1.426125 0.85567,2.110665 0.85568,0.627495 2.62407,0.627495 h 11.46605 q 1.08385,0 1.54021,0.513405 0.51341,0.45636 0.51341,1.540215 v 6.788355 q 0,1.083855 -0.51341,1.59726 -0.45636,0.45636 -1.54021,0.45636 z m -3.13748,-5.7045 h -9.52651 q -5.13405,0 -6.8454,-1.540215 -1.71135,-1.540215 -1.71135,-5.24814 V 25.619835 q 0,-3.76497 1.76839,-5.305185 1.7684,-1.59726 6.78836,-1.59726 h 9.52651 v -0.57045 h -9.52651 q -5.47632,0 -7.30176,1.71135 -1.82544,1.71135 -1.82544,5.761545 v 15.972599 q 0,3.936105 1.76839,5.647455 1.82544,1.71135 7.35881,1.71135 h 9.52651 z"
       id="path91793" />
  </g>
  <g
     id="path3254"
     transform="matrix(0.32692074,0,0,0.32692074,-13.425446,-3.4786451)"
     style="stroke-width:3.05885">
    <path
       style="color:#000000;fill:#fb521f;fill-rule:evenodd;stroke-width:1.61864;stroke-linecap:round;stroke-linejoin:round;-inkscape-stroke:none"
       d="m 103.65739,52.096695 c 0.0173,4.357642 -4.150903,6.208379 -6.707525,6.142932 -2.643443,-0.06797 -6.636585,-3.089687 -6.444775,-6.744276 l 0.212508,-32.067825 c 0.04201,-4.279972 4.443523,-5.679486 6.468023,-5.668179 2.644791,0.01574 6.486649,1.841424 6.684279,5.762198 z"
       id="path91799" />
    <path
       style="color:#000000;fill:#ffffff;fill-rule:evenodd;stroke-width:3.05885;stroke-linecap:round;stroke-linejoin:round;-inkscape-stroke:none"
       d="m 97.1875,13.494141 c -1.074285,-0.006 -2.710997,0.349421 -4.123047,1.267578 -1.412049,0.918156 -2.589436,2.433676 -2.611328,4.664062 l -0.212891,32.056641 c -0.101141,1.927072 0.898349,3.664669 2.244141,4.923828 1.345792,1.259159 3.039971,2.06117 4.458984,2.097656 1.345768,0.03445 3.069381,-0.426254 4.482421,-1.464844 1.41305,-1.038589 2.50508,-2.680033 2.4961,-4.943359 l 0.21289,-32.572266 a 0.26460996,0.26460996 0 0 0 0,-0.01563 c -0.10305,-2.044413 -1.16868,-3.561834 -2.53516,-4.546874 -1.36648,-0.985041 -3.029601,-1.45857 -4.41211,-1.466797 z m -0.0039,0.529297 c 1.262279,0.0075 2.84237,0.455258 4.10743,1.367187 1.26505,0.911929 2.21987,2.268175 2.31445,4.144531 l -0.21289,32.560547 a 0.26460996,0.26460996 0 0 0 0,0.002 c 0.008,2.094312 -0.97537,3.555799 -2.28125,4.515625 -1.30589,0.959826 -2.943451,1.392325 -4.154303,1.361328 -1.224427,-0.03148 -2.847644,-0.772741 -4.111328,-1.955078 -1.263684,-1.182336 -2.16684,-2.782252 -2.076172,-4.509765 a 0.26460996,0.26460996 0 0 0 0,-0.01172 l 0.212891,-32.06836 c 0.02012,-2.049581 1.063809,-3.375844 2.36914,-4.224609 1.305332,-0.848765 2.881819,-1.186948 3.832032,-1.18164 z"
       id="path91796" />
  </g>
  <path
     style="color:#000000;fill:#ffffff;fill-rule:evenodd;stroke-width:1;-inkscape-stroke:none"
     d="m 15.903559,4.3617061 c -0.3331,-0.00239 -0.604567,0.2667787 -0.607868,0.5995674 l -0.0332,3.2985792 c -0.0033,0.3334004 0.266471,0.6061137 0.599567,0.6085068 l 5.456766,0.03895 c 0.333103,0.00239 0.604454,-0.2661765 0.60787,-0.5989292 l 0.0332,-3.2992174 c 0.0033,-0.3334003 -0.267111,-0.6061137 -0.600207,-0.6085071 z m -0.0013,0.1730381 5.45613,0.038949 c 0.240258,0.00173 0.430836,0.1936122 0.428443,0.4335531 l -0.0332,3.2992178 c -0.0026,0.2405902 -0.193272,0.430163 -0.433529,0.4284453 L 15.863332,8.6953213 C 15.623074,8.6935886 15.433135,8.50171 15.435526,8.2617682 l 0.0332,-3.2992178 c 0.0024,-0.2405532 0.193298,-0.4295238 0.433553,-0.4278062 z"
     id="path91802" />
  <g
     id="g89077"
     transform="matrix(0.32692074,0,0,0.32692074,-13.425446,-3.4786451)"
     style="stroke-width:3.05885">
    <g
       id="g89055"
       style="stroke-width:3.05885">
      <g
         id="g89034"
         style="stroke-width:3.05885">
        <g
           id="g89014"
           style="stroke-width:3.05885">
          <g
             id="g88995"
             style="stroke-width:3.05885">
            <g
               id="g88977"
               style="stroke-width:3.05885">
              <g
                 id="g88960"
                 style="stroke-width:3.05885">
                <g
                   id="g88944"
                   style="stroke-width:3.05885">
                  <g
                     id="g88929"
                     style="stroke-width:3.05885">
                    <g
                       id="g71429"
                       style="stroke-width:3.05885">
                      <g
                         id="g71415"
                         style="stroke-width:3.05885">
                        <g
                           id="layer1-4"
                           transform="matrix(0.2254183,-0.2222502,0.22228204,0.2254506,66.782732,36.986879)"
                           style="stroke-width:2.55644">
                          <g
                             id="g3250"
                             transform="rotate(-90,66.69955,65.03045)"
                             style="stroke-width:2.55644" />
                          <g
                             id="g3244"
                             style="stroke-width:2.55644">
                            <g
                               id="rect3026"
                               style="stroke-width:2.55644">
                              <path
                                 style="color:#000000;fill:#fb521f;fill-rule:evenodd;stroke-width:5.11289;stroke-linecap:round;stroke-linejoin:round;-inkscape-stroke:none"
                                 d="M 32.422143,40.512126 C 22.582752,30.886281 27.663314,17.405291 33.479975,11.799348 39.494837,6.003689 54.005163,2.5977678 61.799601,11.134668 l 67.758519,67.758507 c 9.53321,9.586954 2.92035,22.592065 -1.59453,27.121085 -5.90038,5.91453 -18.52619,10.50761 -27.78294,2.25638 z"
                                 id="path91814" />
                              <path
                                 style="color:#000000;fill:#ffffff;fill-rule:evenodd;stroke-width:2.55644;stroke-linecap:round;stroke-linejoin:round;-inkscape-stroke:none"
                                 d="M 51.078125,5.234375 C 49.684113,5.1127275 48.277544,5.1281371 46.892578,5.2597656 41.352716,5.7862796 36.090724,8.1231992 32.900391,11.197266 29.838585,14.148153 27.05144,19.0453 26.253906,24.527344 c -0.797533,5.482044 0.473481,11.582442 5.583985,16.582031 l 67.751953,67.751955 a 0.83583857,0.83583857 0 0 0 0.03516,0.0332 c 4.826756,4.30245 10.599896,5.27395 15.845696,4.38477 5.24581,-0.88919 9.99969,-3.58214 13.08399,-6.67383 a 0.83583857,0.83583857 0 0 0 0,-0.002 c 2.39578,-2.40329 5.22676,-6.873231 6.29297,-12.085942 1.0662,-5.212711 0.27069,-11.21692 -4.69727,-16.212891 a 0.83583857,0.83583857 0 0 0 -0.002,-0.002 L 62.416016,10.570313 C 59.334526,7.1952939 55.260162,5.5993175 51.078125,5.234375 Z m -0.15625,1.6601562 c 3.837149,0.3274467 7.495433,1.7750842 10.259766,4.8027348 a 0.83583857,0.83583857 0 0 0 0.02734,0.0293 L 128.9668,79.484375 c 4.56335,4.590487 5.22963,9.881127 4.24414,14.699219 -0.98564,4.818828 -3.72076,9.114506 -5.83985,11.240236 -2.81607,2.82283 -7.32331,5.38385 -12.17968,6.20703 -4.85434,0.82283 -10.02048,-0.0359 -14.44922,-3.98047 -0.002,-0.002 -0.004,-0.002 -0.006,-0.004 L 33.013672,39.921875 a 0.83583857,0.83583857 0 0 0 -0.0078,-0.0078 c -4.72889,-4.626258 -5.836685,-10.078156 -5.099622,-15.144544 0.737063,-5.066387 3.399448,-9.71409 6.154297,-12.36914 2.824522,-2.7215871 7.822619,-4.9854276 12.990234,-5.4765629 1.291904,-0.1227838 2.592044,-0.1384457 3.871094,-0.029297 z"
                                 id="path91811" />
                            </g>
                            <path
                               id="path91808"
                               style="fill:#ff9955;fill-rule:evenodd;stroke-width:2.55644"
                               d="M 48.982048,45.85515 72.500547,22.807502 c 1.978392,-1.938784 5.112382,-1.958686 7.071068,0 l 37.278675,37.278669 c 1.95868,1.958686 1.9784,5.132286 0,7.071068 L 93.331785,90.204881 c -1.978396,1.938786 -5.112382,1.95869 -7.071068,0 L 48.982048,52.926218 c -1.958685,-1.958686 -1.978392,-5.132284 0,-7.071068 z" />
                            <path
                               id="path91805"
                               style="fill:url(#pattern3224);fill-rule:evenodd;stroke-width:2.55644;filter:url(#filter87882)"
                               d="m 76.184776,23.077917 c -1.278,0 -2.312,0.13 -3.292,1.109 l -22.412,20.972 c -1.959,1.959 -1.959,5.104 0,7.062 l 37.281,37.282 c 1.959,1.958 4.424,1.449 6.383,-0.51 l 21.302994,-21.303 c 1.96,-1.959 2.55,-4.623 0.59,-6.582 l -36.201994,-36.081 c -0.979,-0.979 -2.373,-1.949 -3.651,-1.949 z" />
                          </g>
                        </g>
                      </g>
                    </g>
                  </g>
                </g>
              </g>
            </g>
          </g>
        </g>
      </g>
    </g>
  </g>
  <path
     d="m 60.599362,21.563908 q 1.032123,0 1.583531,0.395883 0.558477,0.388814 0.558477,1.16644 0,0.42416 -0.155525,0.728141 -0.148456,0.296912 -0.438299,0.487784 -0.282773,0.183803 -0.692795,0.268635 -0.410021,0.08483 -0.926082,0.08483 H 59.98433 v 1.816819 h -0.685725 v -4.828355 q 0.289842,-0.07069 0.643309,-0.0919 0.360536,-0.02828 0.657448,-0.02828 z m 0.05655,0.600894 q -0.438299,0 -0.671587,0.02121 v 1.922858 h 0.516061 q 0.353467,0 0.63624,-0.04242 0.282774,-0.04948 0.473646,-0.155525 0.197941,-0.113109 0.303981,-0.303981 0.10604,-0.190872 0.10604,-0.487784 0,-0.282774 -0.113109,-0.466576 -0.10604,-0.183803 -0.296912,-0.289843 -0.183803,-0.113109 -0.431229,-0.155525 -0.247427,-0.04242 -0.523131,-0.04242 z"
     style="font-size:133.703px;line-height:1.25;font-family:Ubuntu;-inkscape-font-specification:Ubuntu;fill:url(#linearGradient62102);stroke-width:0.332736"
     id="path91817" />
  <path
     d="m 65.993262,24.462335 q 0.113109,0.141387 0.282773,0.374675 0.176734,0.226219 0.360537,0.508992 0.183802,0.275704 0.360535,0.579685 0.183803,0.303981 0.311051,0.586755 h -0.749349 q -0.141387,-0.268635 -0.311051,-0.544339 -0.162595,-0.275704 -0.332259,-0.52313 -0.169663,-0.254497 -0.339327,-0.473646 -0.162595,-0.219149 -0.296913,-0.381744 -0.0919,0.0071 -0.190872,0.0071 -0.0919,0 -0.190872,0 h -0.615031 v 1.91579 h -0.685726 v -4.828355 q 0.289843,-0.07069 0.643309,-0.0919 0.360536,-0.02828 0.657448,-0.02828 1.032123,0 1.569393,0.388814 0.544338,0.388813 0.544338,1.15937 0,0.487785 -0.261565,0.834182 -0.254496,0.346397 -0.756419,0.516061 z M 64.95407,22.164802 q -0.438298,0 -0.671586,0.02121 v 1.845096 h 0.487783 q 0.353467,0 0.63624,-0.03535 0.282774,-0.03535 0.473646,-0.134317 0.197941,-0.09897 0.303981,-0.275704 0.10604,-0.183803 0.10604,-0.480715 0,-0.275704 -0.10604,-0.459507 -0.10604,-0.183802 -0.289843,-0.289842 -0.176733,-0.10604 -0.42416,-0.148456 -0.240357,-0.04242 -0.516061,-0.04242 z"
     style="font-size:133.703px;line-height:1.25;font-family:Ubuntu;-inkscape-font-specification:Ubuntu;fill:url(#linearGradient62104);stroke-width:0.332736"
     id="path91820" />
  <path
     d="m 68.043367,21.613394 h 0.685725 v 4.899048 h -0.685725 z"
     style="font-size:133.703px;line-height:1.25;font-family:Ubuntu;-inkscape-font-specification:Ubuntu;fill:url(#linearGradient62106);stroke-width:0.332736"
     id="path91823" />
  <path
     d="m 73.903838,21.613394 q -0.268635,0.777626 -0.516061,1.442144 -0.240357,0.657448 -0.473645,1.251272 -0.233288,0.593824 -0.466576,1.138163 -0.226219,0.537269 -0.466577,1.067469 H 71.33767 q -0.240357,-0.5302 -0.473645,-1.067469 -0.226219,-0.544339 -0.466576,-1.138163 -0.233288,-0.593824 -0.480715,-1.251272 -0.247427,-0.664518 -0.508992,-1.442144 h 0.756419 q 0.381744,1.116955 0.749349,2.149077 0.367605,1.032123 0.756419,1.936998 0.388813,-0.897806 0.756419,-1.929928 0.367605,-1.039192 0.74228,-2.156147 z"
     style="font-size:133.703px;line-height:1.25;font-family:Ubuntu;-inkscape-font-specification:Ubuntu;fill:url(#linearGradient62108);stroke-width:0.332736"
     id="path91826" />
  <path
     d="m 77.417283,26.512442 q -0.120179,-0.31812 -0.226219,-0.622101 -0.10604,-0.311051 -0.219149,-0.629171 h -2.219771 l -0.445368,1.251272 h -0.714003 q 0.282773,-0.777627 0.5302,-1.435075 0.247427,-0.664517 0.480715,-1.258341 0.240357,-0.593824 0.473645,-1.131094 0.233288,-0.544338 0.487784,-1.074538 h 0.629171 q 0.254496,0.5302 0.487784,1.074538 0.233288,0.53727 0.466576,1.131094 0.240358,0.593824 0.487784,1.258341 0.247427,0.657448 0.5302,1.435075 z m -0.64331,-1.816819 q -0.226218,-0.615032 -0.452437,-1.187648 -0.219149,-0.579685 -0.459507,-1.109885 -0.247427,0.5302 -0.473645,1.109885 -0.21915,0.572616 -0.438299,1.187648 z"
     style="font-size:133.703px;line-height:1.25;font-family:Ubuntu;-inkscape-font-specification:Ubuntu;fill:url(#linearGradient62110);stroke-width:0.332736"
     id="path91829" />
  <path
     d="m 80.803473,26.618482 q -0.516062,0 -0.940222,-0.169664 -0.42416,-0.169664 -0.728141,-0.494853 -0.303982,-0.32519 -0.473646,-0.798835 -0.162594,-0.480715 -0.162594,-1.095747 0,-0.615032 0.183803,-1.088677 0.190871,-0.480715 0.508992,-0.805904 0.318119,-0.32519 0.74228,-0.494854 0.42416,-0.169664 0.904875,-0.169664 0.303981,0 0.544338,0.04242 0.247427,0.04242 0.42416,0.09897 0.183803,0.05655 0.296912,0.113109 0.113109,0.05655 0.155525,0.08483 l -0.197941,0.565547 q -0.06362,-0.04242 -0.183803,-0.0919 -0.120178,-0.04949 -0.275704,-0.09897 -0.148456,-0.04949 -0.332258,-0.07776 -0.176734,-0.03535 -0.360536,-0.03535 -0.388814,0 -0.699864,0.134317 -0.311051,0.134317 -0.530201,0.388813 -0.219149,0.254496 -0.339327,0.622102 -0.11311,0.360536 -0.11311,0.812973 0,0.438299 0.09897,0.798835 0.10604,0.360536 0.311051,0.622101 0.20501,0.254496 0.508992,0.395883 0.31105,0.141386 0.721072,0.141386 0.473645,0 0.784696,-0.09897 0.31105,-0.09897 0.466576,-0.176733 l 0.176733,0.565546 q -0.04949,0.03535 -0.176733,0.0919 -0.127248,0.04949 -0.31812,0.09897 -0.190873,0.04949 -0.445368,0.08483 -0.254496,0.03535 -0.551408,0.03535 z"
     style="font-size:133.703px;line-height:1.25;font-family:Ubuntu;-inkscape-font-specification:Ubuntu;fill:url(#linearGradient62112);stroke-width:0.332736"
     id="path91832" />
  <path
     d="m 84.366398,26.512442 v -1.965275 q -0.487784,-0.756418 -0.919013,-1.491629 -0.431229,-0.735211 -0.812974,-1.442144 h 0.805905 q 0.268634,0.579685 0.600893,1.180578 0.332258,0.593825 0.685725,1.145232 0.346397,-0.551407 0.678656,-1.145232 0.332259,-0.600893 0.607963,-1.180578 h 0.763488 q -0.381744,0.706933 -0.812973,1.442144 -0.43123,0.728141 -0.911945,1.47749 v 1.979414 z"
     style="font-size:133.703px;line-height:1.25;font-family:Ubuntu;-inkscape-font-specification:Ubuntu;fill:url(#linearGradient62114);stroke-width:0.332736"
     id="path91835" />
  <path
     d="m 88.565579,26.024658 q 1.074539,0 1.074539,-0.735211 0,-0.226218 -0.09897,-0.381744 -0.0919,-0.162595 -0.254496,-0.275704 -0.162595,-0.120179 -0.374675,-0.20501 -0.205011,-0.08483 -0.438299,-0.169664 -0.268634,-0.0919 -0.508992,-0.205011 -0.240357,-0.120179 -0.41709,-0.275704 -0.176734,-0.162595 -0.282774,-0.381744 -0.09897,-0.219149 -0.09897,-0.5302 0,-0.64331 0.438298,-1.003846 0.438299,-0.360536 1.208856,-0.360536 0.445368,0 0.805904,0.09897 0.367606,0.0919 0.53727,0.205011 l -0.219149,0.558477 q -0.148457,-0.0919 -0.445368,-0.176733 -0.289844,-0.0919 -0.678657,-0.0919 -0.197941,0 -0.367605,0.04242 -0.169664,0.04242 -0.296912,0.127247 -0.127248,0.08483 -0.205011,0.21915 -0.07069,0.127248 -0.07069,0.303981 0,0.197942 0.07776,0.332259 0.07776,0.134317 0.21915,0.240357 0.141386,0.09897 0.325189,0.183803 0.190872,0.08483 0.417091,0.169664 0.31812,0.127248 0.579686,0.254496 0.268634,0.127248 0.459506,0.303981 0.197942,0.176734 0.303981,0.42416 0.106041,0.240357 0.106041,0.586755 0,0.643309 -0.473646,0.989706 -0.466576,0.346398 -1.321966,0.346398 -0.289842,0 -0.537269,-0.04242 -0.240357,-0.03535 -0.431229,-0.08483 -0.190872,-0.05655 -0.332259,-0.113109 -0.134317,-0.06362 -0.21208,-0.106041 l 0.205011,-0.565546 q 0.162595,0.0919 0.494853,0.205011 0.332259,0.113109 0.812973,0.113109 z"
     style="font-size:133.703px;line-height:1.25;font-family:Ubuntu;-inkscape-font-specification:Ubuntu;fill:url(#linearGradient62116);stroke-width:0.332736"
     id="path91838" />
  <path
     d="m 94.461401,26.512442 q -0.120179,-0.31812 -0.226218,-0.622101 -0.106041,-0.311051 -0.21915,-0.629171 h -2.219771 l -0.445368,1.251272 h -0.714002 q 0.282773,-0.777627 0.530199,-1.435075 0.247427,-0.664517 0.480715,-1.258341 0.240358,-0.593824 0.473646,-1.131094 0.233288,-0.544338 0.487784,-1.074538 h 0.62917 q 0.254496,0.5302 0.487784,1.074538 0.233288,0.53727 0.466576,1.131094 0.240358,0.593824 0.487785,1.258341 0.247426,0.657448 0.530199,1.435075 z m -0.643309,-1.816819 q -0.226219,-0.615032 -0.452438,-1.187648 -0.219149,-0.579685 -0.459507,-1.109885 -0.247426,0.5302 -0.473645,1.109885 -0.219149,0.572616 -0.438298,1.187648 z"
     style="font-size:133.703px;line-height:1.25;font-family:Ubuntu;-inkscape-font-specification:Ubuntu;fill:url(#linearGradient62118);stroke-width:0.332736"
     id="path91841" />
  <path
     d="m 95.875254,26.512442 v -4.899048 h 2.954975 v 0.586754 H 96.56098 v 1.477491 h 2.014749 v 0.579686 H 96.56098 v 2.255117 z"
     style="font-size:133.703px;line-height:1.25;font-family:Ubuntu;-inkscape-font-specification:Ubuntu;fill:url(#linearGradient62120);stroke-width:0.332736"
     id="path91844" />
  <path
     d="m 99.671463,26.512442 v -4.899048 h 2.990327 v 0.586754 h -2.3046 v 1.456283 h 2.0501 v 0.572616 h -2.0501 v 1.69664 h 2.48133 v 0.586755 z"
     style="font-size:133.703px;line-height:1.25;font-family:Ubuntu;-inkscape-font-specification:Ubuntu;fill:url(#linearGradient62122);stroke-width:0.332736"
     id="path91847" />
  <path
     id="path91850"
     style="fill:url(#linearGradient4888);fill-opacity:1;stroke:none;stroke-width:0.830786"
     d="m 53.465793,19.550467 c -1.744317,0.0035 -3.174401,1.384153 -3.239116,3.127271 h 1.470137 c 0.07231,-1.002847 0.848112,-1.777673 1.782486,-1.780251 0.934407,0.0026 1.710257,0.777372 1.782573,1.780251 h 1.448791 c -0.0648,-1.745344 -1.498324,-3.126913 -3.244871,-3.127271 z" />
  <path
     id="path91853"
     style="fill:url(#linearGradient888);fill-opacity:1;stroke:none;stroke-width:0.830786"
     d="m 49.624516,22.994566 v 0.878533 h 7.59413 v -0.878533 z m 0,1.195362 v 0.870538 h 7.59413 v -0.870538 z m 0.983104,1.187366 c 0.546607,1.023932 1.622535,1.718728 2.858173,1.721171 1.23784,-2.46e-4 2.316486,-0.695529 2.864005,-1.721171 z" />
</svg>
